<svg width="105" height="168" viewBox="0 0 105 168" fill="none" xmlns="http://www.w3.org/2000/svg">
<rect x="40.9805" y="59.6312" width="23.4942" height="108.369" fill="#93642D"/>
<rect x="41.043" y="40.5259" width="23.4942" height="108.369" fill="#714D22"/>
<path d="M104.935 85.5596C104.935 113.912 81.4448 136.895 52.4677 136.895C23.4906 136.895 0 113.912 0 85.5596C0 57.2076 23.4906 0 52.4676 0C81.4447 0 104.935 57.2076 104.935 85.5596Z" fill="#66A865"/>
<path fill-rule="evenodd" clip-rule="evenodd" d="M103.663 72.5192C99.2484 96.5005 77.81 114.695 52.0284 114.695C27.2104 114.695 6.4169 97.835 0.95926 75.1829C0.371699 79.0515 0.0644531 82.6714 0.0644531 85.9139C0.0644531 114.266 23.555 137.25 52.5321 137.25C81.5092 137.25 105 114.266 105 85.9139C105 81.9375 104.538 77.3934 103.663 72.5192Z" fill="#458244"/>
</svg>
