<svg width="247" height="288" viewBox="0 0 247 288" fill="none" xmlns="http://www.w3.org/2000/svg">
<path fill-rule="evenodd" clip-rule="evenodd" d="M34.956 79.2228C34.956 60.957 49.7634 46.1497 68.0292 46.1497H90.8642C109.13 46.1497 123.937 60.957 123.937 79.2228V89.8399C141.604 90.519 155.718 105.055 155.718 122.888V135.886C155.718 154.152 140.91 168.959 122.644 168.959H99.8094C91.3861 168.959 83.6982 165.81 77.8588 160.625C72.0194 165.81 64.3316 168.959 55.9082 168.959H33.0731C14.8073 168.959 0 154.152 0 135.886V122.888C0 104.622 14.8074 89.8151 33.0732 89.8151H34.956V79.2228Z" fill="#66A865"/>
<path fill-rule="evenodd" clip-rule="evenodd" d="M130.687 205.352C117.982 218.475 95.6316 220.509 80.7661 209.895L68.9125 201.432C54.047 190.818 52.2957 171.575 65.0008 158.452L73.3911 149.785C61.6084 138.839 61.0444 121.557 72.7484 109.468L83.3021 98.5669C96.0073 85.4437 118.358 83.4096 133.223 94.0235L145.077 102.487C152.345 107.676 156.478 114.928 157.319 122.518C166.164 121.843 175.221 124.009 182.489 129.198L194.343 137.662C209.208 148.276 210.959 167.518 198.254 180.641L187.701 191.542C175.313 204.337 153.758 206.591 138.909 196.859L130.687 205.352Z" fill="#66A865"/>
<path fill-rule="evenodd" clip-rule="evenodd" d="M124.326 66.487C124.326 48.2212 139.133 33.4138 157.399 33.4138H181.223C199.488 33.4138 214.296 48.2212 214.296 66.487V77.5776C232.127 78.0757 246.428 92.6865 246.428 110.638V124.514C246.428 142.78 231.621 157.588 213.355 157.588H189.531C181.167 157.588 173.528 154.483 167.704 149.363C161.88 154.483 154.241 157.588 145.877 157.588H122.054C103.788 157.588 88.9805 142.78 88.9805 124.514V110.638C88.9805 92.3718 103.788 77.5645 122.054 77.5645H124.326V66.487Z" fill="#66A865"/>
<path fill-rule="evenodd" clip-rule="evenodd" d="M123.068 48.5557C123.068 30.2899 137.875 15.4825 156.141 15.4825H179.965C198.23 15.4825 213.038 30.2899 213.038 48.5557V59.6463C230.869 60.1444 245.17 74.7552 245.17 92.7063V106.583C245.17 124.849 230.363 139.656 212.097 139.656H188.273C179.909 139.656 172.27 136.552 166.446 131.432C160.622 136.552 152.984 139.656 144.62 139.656H120.796C102.53 139.656 87.7227 124.849 87.7227 106.583V92.7063C87.7227 74.4405 102.53 59.6332 120.796 59.6332H123.068V48.5557Z" fill="#66A865"/>
<path fill-rule="evenodd" clip-rule="evenodd" d="M50.176 43.1173C50.176 24.9858 64.8745 10.2873 83.006 10.2873H91.1675C109.299 10.2873 123.998 24.9858 123.998 43.1173C123.998 44.4665 123.916 45.7966 123.758 47.1032C138.912 50.0126 150.361 63.3409 150.361 79.3434C150.361 97.4749 135.663 112.173 117.531 112.173H109.37C100.105 112.173 91.7366 108.336 85.7675 102.163C79.7985 108.336 71.4301 112.173 62.1654 112.173H54.0039C35.8723 112.173 21.1738 97.4749 21.1738 79.3434C21.1738 62.4399 33.9487 48.5202 50.3705 46.7122C50.2419 45.5316 50.176 44.3321 50.176 43.1173Z" fill="#66A865"/>
<path fill-rule="evenodd" clip-rule="evenodd" d="M79.3754 73.1008C79.3754 55.6259 93.5417 41.4597 111.017 41.4597H118.883C136.358 41.4597 150.524 55.6259 150.524 73.1008C150.524 74.4011 150.445 75.6831 150.293 76.9423C164.899 79.7459 175.934 92.5919 175.934 108.015C175.934 125.49 161.768 139.656 144.293 139.656H136.427C127.497 139.656 119.432 135.958 113.679 130.009C107.926 135.958 99.8604 139.656 90.9311 139.656H83.065C65.5901 139.656 51.4238 125.49 51.4238 108.015C51.4238 91.724 63.736 78.3083 79.563 76.5657C79.439 75.4278 79.3754 74.2717 79.3754 73.1008Z" fill="#66A865"/>
<path fill-rule="evenodd" clip-rule="evenodd" d="M4.56283 109.006C10.1636 119.315 21.0863 126.313 33.6435 126.313H56.4785C59.6014 126.313 62.6233 125.881 65.4873 125.072C67.0753 126.904 68.9367 128.603 71.0675 130.124L82.921 138.588C97.7866 149.202 120.137 147.167 132.842 134.044L141.064 125.552C155.913 135.284 177.468 133.03 189.856 120.235L194.98 114.942H213.927C228.865 114.942 241.49 105.039 245.594 91.4393C245.692 92.4765 245.742 93.5276 245.742 94.5904V103.457C246.561 106.338 247 109.379 247 112.522V126.399C247 144.664 232.193 159.472 213.927 159.472H207.144C208.06 167.439 205.347 175.788 198.825 182.525L188.271 193.426C175.884 206.221 154.329 208.475 139.48 198.743L131.259 207.235C118.553 220.358 96.203 222.393 81.3375 211.779L69.484 203.315C58.2256 195.277 54.4892 182.289 58.8579 170.759C58.072 170.815 57.2786 170.843 56.4785 170.843H33.6435C15.3777 170.843 0.570312 156.036 0.570312 137.77V124.772C0.570312 119.064 2.01664 113.693 4.56283 109.006Z" fill="#458244"/>
<path d="M113.223 146.448H134.397L151.654 288H95.6934L113.223 146.448Z" fill="#93642D"/>
<path d="M113.072 146.448H134.549L143.643 222.636H103.926L113.072 146.448Z" fill="#714D22"/>
<path fill-rule="evenodd" clip-rule="evenodd" d="M107.274 206.766C74.159 186.291 70.1338 155.525 72.4505 142.096L87.4118 143.999C85.6953 153.949 88.7282 179.294 116.111 196.225L107.274 206.766Z" fill="#714D22"/>
<path fill-rule="evenodd" clip-rule="evenodd" d="M132.287 185.984C165.402 165.509 169.427 134.744 167.11 121.314L152.149 123.218C153.865 133.167 150.832 158.512 123.449 175.444L132.287 185.984Z" fill="#714D22"/>
<path fill-rule="evenodd" clip-rule="evenodd" d="M86.096 97.4567C86.096 82.8704 97.9206 71.0459 112.507 71.0459H119.073C133.659 71.0459 145.483 82.8704 145.483 97.4567C145.483 98.5421 145.418 99.6121 145.291 100.663C157.482 103.003 166.693 113.726 166.693 126.6C166.693 141.186 154.869 153.011 140.282 153.011H133.717C126.263 153.011 119.531 149.923 114.729 144.958C109.927 149.923 103.195 153.011 95.7422 153.011H89.1764C74.5902 153.011 62.7656 141.186 62.7656 126.6C62.7656 113.002 73.0422 101.804 86.2526 100.349C86.1491 99.3991 86.096 98.4341 86.096 97.4567Z" fill="#66A865"/>
<path fill-rule="evenodd" clip-rule="evenodd" d="M139.479 107.796C139.479 97.5739 147.766 89.2875 157.987 89.2875H162.589C172.81 89.2875 181.097 97.5739 181.097 107.796C181.097 108.556 181.051 109.306 180.962 110.043C189.505 111.683 195.96 119.197 195.96 128.219C195.96 138.441 187.673 146.727 177.451 146.727H172.85C167.627 146.727 162.909 144.564 159.544 141.084C156.179 144.564 151.461 146.727 146.238 146.727H141.637C131.415 146.727 123.129 138.441 123.129 128.219C123.129 118.689 130.331 110.842 139.589 109.823C139.516 109.157 139.479 108.481 139.479 107.796Z" fill="#66A865"/>
<path fill-rule="evenodd" clip-rule="evenodd" d="M111.181 48.643C123.726 56.1641 126.416 71.4619 117.189 82.8116C107.963 94.1612 90.3135 97.2649 77.7685 89.7437L73.6287 87.2618C73.1511 86.9755 72.6878 86.6779 72.2389 86.3696C62.5431 93.2131 48.7924 94.2049 38.4865 88.0262L34.3467 85.5443C21.8017 78.0232 19.1116 62.7254 28.3382 51.3758C33.3278 45.238 40.7807 41.5118 48.5574 40.5734C46.9029 33.9806 48.4074 26.6881 53.3971 20.5503C62.6236 9.2006 80.273 6.09696 92.8179 13.6181L96.9577 16.1C107.84 22.6241 111.306 34.9997 106.012 45.5741C106.359 45.762 106.702 45.9577 107.041 46.1611L111.181 48.643Z" fill="#83C082"/>
</svg>
