<svg width="141" height="159" viewBox="0 0 141 159" fill="none" xmlns="http://www.w3.org/2000/svg">
<path d="M74.5786 25.972H62.9258V77.9162H74.5786V25.972Z" fill="#87B272"/>
<path d="M104.031 29.9785C95.6307 38.7186 81.2573 43.8082 64.7475 45.0044H64.7304C59.3297 34.6335 60.1757 23.8733 68.5844 15.1275C76.9846 6.38163 91.3666 1.29212 107.885 0.101562C113.286 10.4781 112.44 21.2326 104.031 29.9785Z" fill="#87B272"/>
<path opacity="0.1" d="M104.03 29.9786C95.63 38.7188 81.2566 43.8083 64.7468 45.0045H64.7383L107.884 0.107361C113.285 10.4839 112.439 21.2384 104.03 29.9843V29.9786Z" fill="#526B45"/>
<path d="M64.7983 15.2121C73.1045 23.9918 73.8394 34.7463 68.3276 45.0946V45.1059C51.8178 43.8364 37.4957 38.6791 29.1895 29.8938C20.8833 21.1085 20.1484 10.3483 25.6602 0C42.1615 1.26956 56.4836 6.42678 64.7898 15.2121H64.7983Z" fill="#87B272"/>
<path opacity="0.1" d="M64.7995 15.2124C73.1056 23.9921 73.8405 34.7466 68.3287 45.0949H68.3202L25.6699 0.00592041C42.1712 1.27548 56.4933 6.43269 64.7995 15.218V15.2124Z" fill="#526B45"/>
<path d="M13.2793 83.0572L13.604 86.8489L19.2782 154.175C19.4576 156.342 22.1495 158.04 25.4053 158.04H116.859C120.114 158.04 122.806 156.347 122.986 154.175L128.66 86.8489L128.985 83.0572H13.2793ZM33.8396 103.432C37.9158 103.432 37.9158 107.647 33.8396 107.647C29.7634 107.647 29.772 103.432 33.8396 103.432ZM37.2407 117.775C37.0185 117.854 36.7792 117.911 36.5143 117.95C36.4203 117.967 36.3178 117.973 36.2152 117.978C36.0785 117.995 35.9332 118.001 35.788 118.001C35.5231 118.001 35.2752 117.984 35.0445 117.95C33.0876 117.668 32.3783 116.28 32.8911 115.185C33.25 114.412 34.2156 113.792 35.7794 113.792C36.2751 113.792 36.7194 113.854 37.0954 113.967C39.3685 114.638 39.4112 117.042 37.2322 117.781L37.2407 117.775ZM67.2095 133.512C67.1497 133.512 67.0814 133.518 67.0215 133.518C66.9617 133.518 66.9105 133.518 66.8592 133.518C64.1503 133.518 63.2445 131.645 64.1503 130.398C64.6032 129.777 65.5005 129.309 66.8592 129.309C66.919 129.309 66.9703 129.309 67.0215 129.309C67.8505 129.331 68.5085 129.534 68.9785 129.845C69.2946 130.048 69.5339 130.302 69.6877 130.572C70.3628 131.757 69.5339 133.354 67.2181 133.507L67.2095 133.512Z" fill="#ED976B"/>
<path d="M141 68.731V80.9469C141 82.1093 139.581 83.0516 137.838 83.0516H3.16181C1.41854 83.0516 0 82.1093 0 80.9469V68.731C0 67.5686 1.41854 66.6263 3.16181 66.6263H137.838C139.581 66.6263 141 67.5686 141 68.731Z" fill="#ED976B"/>
<path d="M128.985 83.0572L128.66 86.8433H13.604L13.2793 83.0572H128.985Z" fill="#C16E49"/>
<path opacity="0.1" d="M141.001 68.731V80.9469C141.001 82.1093 139.582 83.0516 137.839 83.0516H128.986L128.661 86.8433L122.987 154.169C122.807 156.336 120.115 158.034 116.86 158.034H71.4492V66.6263H137.839C139.582 66.6263 141.001 67.5686 141.001 68.731Z" fill="#ED976B"/>
<path d="M34.8135 106.361C36.0355 106.361 36.0441 105.102 34.8135 105.102C33.583 105.102 33.583 106.361 34.8135 106.361Z" fill="#ED976B"/>
<path d="M32.0039 104.115V105.159C32.0039 105.322 32.1064 105.492 32.2859 105.605C32.4654 105.717 32.7217 105.796 32.961 105.791C33.2003 105.785 33.4652 105.729 33.6361 105.605C33.807 105.48 33.9181 105.328 33.9181 105.159V104.115C33.9181 103.951 33.8155 103.782 33.6361 103.669C33.4566 103.556 33.2003 103.477 32.961 103.483C32.7217 103.489 32.4568 103.545 32.2859 103.669C32.115 103.793 32.0039 103.946 32.0039 104.115Z" fill="#ED976B"/>
<path d="M32.6431 103.658C31.1904 103.556 30.2162 104.561 30.276 105.418C30.3359 106.276 30.8999 107.224 31.9937 107.715C33.002 108.166 34.4291 108.132 35.4546 107.726C36.48 107.32 37.1808 106.581 37.3688 105.808C37.5653 104.99 37.2918 104.081 36.3262 103.5C35.4204 102.953 33.9762 102.699 32.8568 103.127C31.6433 103.596 31.6177 104.724 31.7544 105.531C31.8313 105.966 31.9851 106.434 32.532 106.727C33.19 107.083 34.1129 107.134 34.7624 106.727C35.2922 106.4 35.5913 105.853 35.7451 105.396C35.8306 105.153 35.8819 104.899 35.8904 104.645C35.8989 104.465 35.916 104.256 35.7622 104.098C35.6084 103.94 35.3606 103.822 35.0871 103.765C34.3608 103.607 33.5489 103.878 33.19 104.307C32.7457 104.837 33.0875 105.43 33.4977 105.915C33.7455 106.203 34.3693 106.321 34.8051 106.141C35.2409 105.96 35.4119 105.588 35.1469 105.277C35.0957 105.221 35.0529 105.164 35.0017 105.108C35.0017 105.108 34.8906 104.933 34.9419 105.018C34.9419 105.012 34.8649 104.82 34.8906 104.939C34.882 104.894 34.9248 104.741 34.8906 104.871L34.8479 104.939C34.8991 104.882 34.8906 104.888 34.8137 104.956C34.976 104.894 34.6428 105.001 34.8308 104.944L34.7282 104.973C34.8137 104.956 34.8137 104.961 34.7282 104.973C34.6599 104.984 34.6 104.984 34.5317 104.973C34.4035 104.933 34.3864 104.933 34.4719 104.973L34.0019 104.431C34.0019 104.561 34.0019 104.69 33.9848 104.82C33.9677 105.023 34.0275 104.713 33.9677 104.911C33.9506 104.973 33.9335 105.04 33.9079 105.102C33.8053 105.384 33.7284 105.526 33.5404 105.74L33.4977 105.791C33.4379 105.853 33.4379 105.858 33.4977 105.808L33.4379 105.847C33.5148 105.791 33.6002 105.768 33.6942 105.768H33.7455C33.6344 105.768 33.6429 105.768 33.7711 105.768L33.848 105.796C33.754 105.757 33.754 105.763 33.848 105.808L33.7882 105.768C33.848 105.825 33.848 105.825 33.7882 105.763C33.6686 105.621 33.8053 105.864 33.754 105.706C33.7369 105.65 33.7113 105.593 33.6942 105.537C33.6429 105.396 33.6942 105.644 33.6771 105.463C33.6429 105.181 33.6259 104.899 33.6686 104.611C33.6686 104.572 33.6771 104.527 33.6857 104.487C33.66 104.64 33.6942 104.465 33.7028 104.442C33.7199 104.391 33.7455 104.341 33.7711 104.284C33.8053 104.216 33.8053 104.216 33.7711 104.284C33.7968 104.256 33.8224 104.222 33.848 104.194C33.7113 104.329 33.9677 104.143 33.7797 104.233C33.8224 104.211 33.8737 104.194 33.9249 104.177C33.7369 104.239 33.9848 104.177 34.0104 104.166C34.2326 104.115 33.8395 104.154 34.0702 104.16C34.1471 104.16 34.2326 104.16 34.3095 104.16C34.5573 104.16 34.13 104.126 34.3693 104.166C34.4206 104.177 34.4719 104.183 34.5231 104.194C34.5744 104.205 34.6257 104.216 34.6769 104.228C34.5744 104.2 34.5744 104.2 34.6769 104.228C34.7453 104.256 34.8222 104.279 34.8906 104.307C34.9248 104.318 35.1128 104.431 34.9589 104.335C35.0615 104.397 35.1555 104.459 35.2409 104.527C35.1042 104.42 35.2666 104.561 35.2837 104.578C35.3264 104.628 35.3691 104.679 35.4119 104.73C35.5315 104.882 35.3862 104.628 35.446 104.798C35.4717 104.871 35.5059 104.95 35.54 105.023C35.6084 105.198 35.54 104.956 35.5486 105.057C35.5486 105.108 35.5657 105.153 35.5657 105.204C35.5657 105.26 35.5657 105.322 35.5657 105.379C35.5657 105.39 35.54 105.588 35.5657 105.447C35.54 105.559 35.4973 105.678 35.446 105.791C35.4289 105.825 35.4119 105.858 35.3948 105.892C35.352 105.96 35.352 105.96 35.3948 105.892C35.3691 105.926 35.352 105.96 35.3264 105.994C35.2495 106.095 35.164 106.186 35.07 106.276C34.9333 106.417 35.1897 106.197 35.0188 106.321C34.9846 106.349 34.9419 106.378 34.9077 106.4C34.8479 106.44 34.788 106.473 34.7282 106.513C34.5488 106.631 34.8735 106.462 34.6599 106.547C34.5915 106.575 34.5231 106.609 34.4548 106.631C34.4035 106.648 34.3608 106.665 34.3095 106.682C34.412 106.654 34.412 106.654 34.3095 106.682C34.1728 106.71 34.0446 106.733 33.9079 106.75C34.13 106.722 33.8737 106.75 33.8309 106.75C33.7455 106.75 33.6686 106.75 33.5831 106.75C33.3268 106.75 33.754 106.784 33.5148 106.744C33.4635 106.733 33.4122 106.727 33.3524 106.716C33.3182 106.71 33.0789 106.643 33.2755 106.705C33.1729 106.671 33.0875 106.637 32.9935 106.598C33.1644 106.671 32.9508 106.569 32.9251 106.552C32.8824 106.524 32.8397 106.496 32.8055 106.468C32.8568 106.519 32.8568 106.513 32.7884 106.457C32.6859 106.355 32.6004 106.253 32.5235 106.146C32.4039 105.977 32.5662 106.253 32.4808 106.073C32.4466 105.994 32.3953 105.921 32.3611 105.842C32.3013 105.712 32.25 105.582 32.2244 105.452C32.25 105.571 32.2244 105.356 32.2244 105.356C32.2244 105.311 32.2244 105.266 32.2244 105.226C32.233 105.148 32.233 105.142 32.2244 105.198C32.2415 105.136 32.2671 105.08 32.3013 105.023C32.233 105.153 32.3269 105.012 32.344 104.99C32.4551 104.865 32.2244 105.046 32.3953 104.956C32.4295 104.933 32.4722 104.905 32.5149 104.888C32.4295 104.933 32.4209 104.939 32.5149 104.899L32.5833 104.877C32.4722 104.905 32.4637 104.911 32.5662 104.888C32.6773 104.871 32.6688 104.877 32.5406 104.888C32.5919 104.888 32.6431 104.888 32.6944 104.894C33.19 104.927 33.6686 104.578 33.6429 104.267C33.6173 103.895 33.2242 103.675 32.6944 103.641L32.6431 103.658Z" fill="#ED976B"/>
<path d="M35.7294 116.269C36.2165 116.653 36.7805 116.974 37.3957 117.262C37.8572 117.476 38.7032 117.273 38.7972 116.884C38.9766 116.088 39.1475 115.225 38.7117 114.452C38.2246 113.594 37.1308 113.041 35.755 112.962C34.3792 112.883 33.1828 113.369 32.4992 114.102C31.713 114.943 31.8583 115.925 32.4308 116.794C32.9606 117.6 33.875 118.362 35.1739 118.667C36.3788 118.949 37.7375 118.588 38.3357 117.849C38.8655 117.2 38.8741 116.41 38.6263 115.705C38.3784 114.999 37.7119 114.164 36.6352 113.848C35.1568 113.408 33.6443 114.034 33.2426 115.022C32.8154 116.06 33.7468 116.997 34.7381 117.741C35.2679 118.142 36.4215 117.832 36.3617 117.296C36.2677 116.449 36.225 115.609 36.225 114.762L34.7894 115.304C34.8748 115.343 34.9603 115.4 35.0885 115.496C35.1312 115.53 35.1312 115.53 35.097 115.496L35.1568 115.552C35.2166 115.609 35.2679 115.665 35.3192 115.727C35.4815 115.919 35.5585 116.094 35.6354 116.353C35.661 116.432 35.6781 116.534 35.6866 116.653C35.6952 116.822 35.6952 116.985 35.6866 117.155C35.661 117.431 35.6097 117.713 35.5585 117.99L37.1479 117.713C37.0966 117.685 37.0539 117.657 37.0026 117.629C36.8146 117.516 37.0197 117.657 36.9428 117.584C36.9086 117.55 36.8745 117.51 36.8403 117.471C36.7634 117.38 36.883 117.589 36.8061 117.414C36.789 117.375 36.7719 117.33 36.7548 117.29C36.7377 117.251 36.7377 117.2 36.7548 117.268C36.7548 117.217 36.7548 117.16 36.7548 117.11C36.7634 117.002 36.7035 117.245 36.7719 117.053C36.883 116.72 36.6181 116.37 36.1054 116.28C35.6268 116.195 35.0457 116.387 34.9346 116.72C34.7039 117.403 34.9945 118.142 35.8063 118.605C36.0712 118.757 36.3874 118.831 36.7292 118.768C37.0197 118.718 37.353 118.537 37.3957 118.328C37.5581 117.538 37.7204 116.748 37.4641 115.953C37.2334 115.248 36.6523 114.638 35.755 114.221C35.1483 113.938 34.3194 114.317 34.3194 114.762C34.3194 115.609 34.3621 116.455 34.4561 117.296L36.0797 116.85C35.7721 116.619 35.5328 116.427 35.2935 116.145C35.1825 116.009 35.1483 115.958 35.0885 115.823C35.0714 115.778 35.0543 115.727 35.0372 115.682C35.0372 115.682 35.0115 115.564 35.0201 115.631C35.0201 115.688 35.0201 115.592 35.0201 115.592C35.0201 115.552 35.0201 115.513 35.0201 115.473C35.0201 115.36 34.9859 115.513 35.0372 115.411C35.0628 115.355 35.0799 115.298 35.1141 115.242C35.0628 115.343 35.1568 115.185 35.1825 115.157C35.1995 115.135 35.2252 115.106 35.2508 115.084C35.1995 115.135 35.2081 115.112 35.2594 115.078C35.3021 115.05 35.4474 114.965 35.3192 115.027C35.3875 114.994 35.4559 114.965 35.5328 114.943C35.379 114.988 35.5585 114.943 35.6268 114.943C35.4217 114.965 35.849 114.982 35.6354 114.943C35.6952 114.954 35.8746 114.994 35.7294 114.948C35.8063 114.971 35.8832 115.005 35.9515 115.033C35.8234 114.982 35.9943 115.056 36.0285 115.084C36.0712 115.112 36.1139 115.14 36.1566 115.169C36.1908 115.191 36.2421 115.236 36.1823 115.185C36.3019 115.281 36.3959 115.394 36.4814 115.507C36.4985 115.53 36.601 115.671 36.5497 115.586C36.601 115.659 36.6437 115.738 36.6779 115.817C36.7292 115.925 36.7719 116.037 36.8061 116.145C36.8146 116.184 36.8488 116.314 36.8232 116.201C36.8403 116.274 36.8488 116.353 36.8488 116.432C36.8488 116.545 36.8488 116.658 36.8488 116.777C36.8488 116.901 36.8745 116.715 36.8488 116.833C36.8317 116.895 36.8146 116.957 36.789 117.019C36.7634 117.081 36.7377 117.138 36.7035 117.194C36.7634 117.093 36.7035 117.194 36.6694 117.234C36.6352 117.273 36.5925 117.324 36.5412 117.363C36.6523 117.268 36.5155 117.369 36.4643 117.403C36.3874 117.454 36.4985 117.392 36.507 117.386C36.4643 117.409 36.4215 117.426 36.3788 117.442C36.3275 117.459 36.1652 117.493 36.2934 117.471C36.2506 117.482 36.0199 117.51 36.1652 117.499C36.1139 117.499 36.0712 117.499 36.0199 117.499C36.0028 117.499 35.8234 117.488 35.9088 117.499C35.8063 117.488 35.6866 117.459 35.5328 117.403C35.4474 117.369 35.3619 117.335 35.2765 117.296C35.2935 117.301 35.3534 117.335 35.2594 117.29C35.2081 117.262 35.1483 117.228 35.097 117.2C34.7552 116.991 34.5672 116.827 34.345 116.551C34.1228 116.274 33.9263 115.975 33.8494 115.654C33.8237 115.547 33.8152 115.377 33.8408 115.242C33.8323 115.332 33.8579 115.18 33.8665 115.152C33.8921 115.078 33.9263 115.005 33.969 114.932C33.969 114.92 34.0117 114.858 33.969 114.932C33.9861 114.903 34.0117 114.875 34.0374 114.847C34.0801 114.79 34.1314 114.734 34.1912 114.678C34.1997 114.666 34.3194 114.565 34.2595 114.61C34.2083 114.655 34.3108 114.57 34.3108 114.576C34.3877 114.525 34.4732 114.469 34.5586 114.418C34.5757 114.407 34.6441 114.367 34.5586 114.418C34.6014 114.401 34.6355 114.384 34.6783 114.367C34.721 114.35 34.9005 114.283 34.8663 114.294C34.7894 114.317 34.9261 114.277 34.9261 114.277C34.9859 114.266 35.0457 114.249 35.1055 114.243C35.1483 114.238 35.1995 114.232 35.2423 114.221C35.3961 114.198 35.1141 114.221 35.2679 114.221C35.379 114.215 35.4901 114.221 35.6012 114.221C35.6012 114.221 35.7635 114.226 35.661 114.221C35.567 114.215 35.7465 114.232 35.7721 114.232C35.8917 114.249 36.0199 114.271 36.131 114.3C36.2335 114.328 36.131 114.3 36.1225 114.3C36.1823 114.317 36.2335 114.339 36.2848 114.356C36.3275 114.373 36.3617 114.39 36.4045 114.407C36.5326 114.463 36.319 114.356 36.4386 114.424C36.5241 114.475 36.601 114.525 36.6779 114.582C36.601 114.525 36.7805 114.689 36.8061 114.717C36.8317 114.745 36.8488 114.774 36.8745 114.802C36.9428 114.892 36.8403 114.728 36.8915 114.824C36.9514 114.937 37.0368 115.152 37.0454 115.208C37.0283 115.14 37.0539 115.276 37.0539 115.287C37.0539 115.332 37.0625 115.377 37.071 115.417C37.071 115.496 37.071 115.575 37.071 115.654C37.071 115.812 37.0539 115.97 37.0368 116.128C37.0283 116.218 37.0112 116.308 36.9941 116.399C37.0112 116.314 36.9599 116.54 36.9599 116.562L38.3614 116.184C37.8999 115.97 37.4641 115.688 37.0795 115.389C36.7463 115.129 36.0712 115.163 35.7294 115.389C35.3363 115.648 35.3961 116.015 35.7294 116.28V116.269Z" fill="#ED976B"/>
<path d="M67.9532 129.162C66.227 129.055 64.4837 129.416 63.125 130.115C62.7832 130.29 62.4755 130.499 62.2875 130.759C62.0312 131.12 62.0397 131.504 62.1764 131.882C62.3474 132.372 62.6379 132.88 63.031 133.309C63.4668 133.783 64.0735 134.155 64.8768 134.342C65.7313 134.534 66.6799 134.409 67.4575 134.144C68.2352 133.879 68.859 133.405 69.329 132.914C69.799 132.423 70.2092 131.898 70.4826 131.368C70.7902 130.77 70.6621 130.149 70.0553 129.664C69.5512 129.258 68.7992 129.038 68.0215 128.981C66.3808 128.857 64.9623 129.704 64.2872 130.618C63.8599 131.193 63.6035 131.819 63.7488 132.463C63.877 133.021 64.4068 133.546 65.1673 133.806C66.0133 134.093 66.9704 134.043 67.7139 133.648C68.295 133.337 68.6112 132.863 68.8333 132.406C68.9615 132.13 69.0641 131.848 69.1752 131.566C69.2948 131.255 69.4657 130.934 69.4828 130.612C69.4999 130.262 69.3204 129.895 68.8504 129.698C68.295 129.467 67.6199 129.54 67.1413 129.822C66.5175 130.183 66.2441 130.747 65.9877 131.25C65.9364 131.357 65.8766 131.464 65.8168 131.566C65.8082 131.583 65.6972 131.752 65.7912 131.616C65.757 131.667 65.7228 131.712 65.6886 131.763C65.6544 131.814 65.6117 131.853 65.569 131.898C65.5263 131.944 65.4237 132.017 65.5348 131.938C65.4835 131.977 65.4237 132.011 65.3724 132.051C65.2955 132.096 65.2955 132.096 65.3724 132.051C65.3297 132.073 65.2784 132.09 65.2357 132.107L66.6372 132.485C66.5004 132.119 66.4833 131.763 66.5517 131.374C66.6115 131.035 66.0646 130.747 65.6032 130.747C65.0392 130.747 64.7144 131.035 64.6546 131.374C64.5606 131.859 64.629 132.35 64.8084 132.824C64.9537 133.224 65.6886 133.399 66.2099 133.202C67.2268 132.813 67.5686 132.096 67.9275 131.408C67.9617 131.334 68.0044 131.267 68.0472 131.193C68.0642 131.165 68.1412 131.052 68.0642 131.159C68.0899 131.125 68.107 131.092 68.1326 131.058C68.1839 130.99 68.2352 130.928 68.295 130.866C68.3206 130.838 68.3548 130.804 68.389 130.776C68.295 130.855 68.3975 130.776 68.3975 130.776H68.389C68.0557 130.855 67.8079 130.804 67.6284 130.635C67.6284 130.635 67.4746 130.51 67.6028 130.612C67.6028 130.606 67.5601 130.46 67.5857 130.595C67.5857 130.629 67.5601 130.714 67.5942 130.584C67.5259 130.804 67.4319 131.024 67.3379 131.238C67.1926 131.611 67.073 132 66.8422 132.361C66.9106 132.26 66.7739 132.44 66.7482 132.474C66.7226 132.502 66.5432 132.677 66.6628 132.581C66.5944 132.638 66.5175 132.694 66.4321 132.734C66.5859 132.655 66.4321 132.734 66.3893 132.739C66.3295 132.762 66.3381 132.756 66.4235 132.728L66.3381 132.745C66.1501 132.734 66.2868 132.773 66.3295 132.745C66.2953 132.762 66.1843 132.745 66.321 132.756C66.2612 132.756 66.2099 132.739 66.1501 132.728C65.9023 132.688 66.2184 132.762 66.0902 132.711C66.0732 132.705 65.9108 132.638 65.9963 132.677C66.0817 132.717 65.9279 132.638 65.9108 132.632C65.8681 132.604 65.8253 132.576 65.7826 132.542C65.7399 132.508 65.7399 132.508 65.7826 132.542L65.7313 132.491C65.7057 132.457 65.6715 132.418 65.6459 132.384C65.7143 132.491 65.6373 132.339 65.6288 132.31C65.5861 132.209 65.5946 132.214 65.5946 132.107C65.5946 131.91 65.6373 131.752 65.7484 131.532C65.8253 131.368 65.9022 131.261 66.039 131.103C66.1073 131.018 66.1928 130.934 66.2697 130.855C66.3039 130.821 66.3466 130.781 66.3808 130.747C66.3039 130.809 66.4235 130.719 66.4492 130.697C66.8252 130.42 67.0986 130.307 67.5857 130.223C67.3977 130.257 67.6882 130.223 67.7566 130.223C67.8164 130.223 67.8677 130.223 67.9275 130.228C67.7566 130.2 67.8762 130.228 67.9275 130.228C68.0386 130.251 68.1497 130.268 68.2522 130.29C68.0899 130.251 68.2266 130.285 68.2522 130.296C68.3206 130.324 68.3975 130.352 68.4659 130.381C68.3121 130.313 68.5513 130.437 68.5855 130.46C68.6197 130.482 68.7052 130.533 68.5855 130.46C68.6112 130.488 68.6368 130.522 68.671 130.55C68.6881 130.578 68.765 130.64 68.671 130.55C68.6881 130.584 68.7052 130.618 68.7137 130.657C68.7222 130.685 68.7137 130.776 68.7137 130.809C68.6112 131.188 68.2693 131.554 67.9873 131.898C67.6882 132.265 67.4233 132.553 66.9875 132.824C66.8252 132.92 66.6457 133.004 66.3722 133.089C66.2184 133.134 66.4748 133.066 66.3124 133.106C66.2355 133.123 66.1501 133.14 66.0732 133.157C66.0048 133.168 65.945 133.179 65.8766 133.185C66.0048 133.174 65.8339 133.185 65.7826 133.185C65.7143 133.185 65.6544 133.185 65.5861 133.185C65.4237 133.174 65.6972 133.208 65.5433 133.179C65.4579 133.162 65.381 133.151 65.3041 133.134C65.3553 133.145 65.4237 133.179 65.2784 133.123C65.2272 133.1 65.1759 133.083 65.1246 133.061C65.099 133.05 64.9879 132.987 65.099 133.055C64.9964 132.999 64.9024 132.931 64.8084 132.863C64.6973 132.779 64.9195 132.982 64.7572 132.824C64.7144 132.779 64.6717 132.739 64.629 132.694C64.5521 132.615 64.4837 132.53 64.4239 132.446C64.3299 132.316 64.2444 132.164 64.1333 131.949C64.0308 131.746 63.9112 131.526 63.9368 131.351C63.9453 131.272 63.9368 131.323 63.9368 131.34C63.9197 131.385 64.0137 131.244 63.9539 131.3C64.0479 131.21 64.2103 131.125 64.3384 131.063C64.7657 130.849 65.3724 130.652 65.9193 130.55C66.5944 130.42 67.1499 130.386 67.9019 130.437C68.4146 130.471 68.8504 130.127 68.8504 129.811C68.8504 129.444 68.4146 129.213 67.9019 129.184L67.9532 129.162Z" fill="#ED976B"/>
<path opacity="0.1" d="M140.999 68.731V80.9469C140.999 82.1093 139.581 83.0516 137.838 83.0516H128.984L128.66 86.8433L122.986 154.169C122.806 156.336 120.114 158.034 116.858 158.034H67.0215V66.6263H137.838C139.581 66.6263 140.999 67.5686 140.999 68.731Z" fill="black"/>
</svg>
