<svg width="247" height="288" viewBox="0 0 247 288" fill="none" xmlns="http://www.w3.org/2000/svg">
<path fill-rule="evenodd" clip-rule="evenodd" d="M34.956 79.2228C34.956 60.957 49.7634 46.1497 68.0292 46.1497H90.8642C109.13 46.1497 123.937 60.957 123.937 79.2228V89.8399C141.604 90.519 155.718 105.055 155.718 122.888V135.886C155.718 154.152 140.91 168.959 122.644 168.959H99.8094C91.3861 168.959 83.6982 165.81 77.8588 160.625C72.0194 165.81 64.3316 168.959 55.9082 168.959H33.0731C14.8073 168.959 0 154.152 0 135.886V122.888C0 104.622 14.8074 89.8151 33.0732 89.8151H34.956V79.2228Z" fill="#66A865"/>
<path fill-rule="evenodd" clip-rule="evenodd" d="M130.687 205.352C117.982 218.475 95.6316 220.509 80.7661 209.895L68.9125 201.432C54.047 190.818 52.2957 171.575 65.0008 158.452L73.3911 149.785C61.6084 138.839 61.0444 121.557 72.7484 109.468L83.3021 98.5669C96.0073 85.4437 118.358 83.4096 133.223 94.0235L145.077 102.487C152.345 107.676 156.478 114.928 157.319 122.518C166.164 121.843 175.221 124.009 182.489 129.198L194.343 137.662C209.208 148.276 210.959 167.518 198.254 180.641L187.701 191.542C175.313 204.337 153.758 206.591 138.909 196.859L130.687 205.352Z" fill="#66A865"/>
<path fill-rule="evenodd" clip-rule="evenodd" d="M124.326 66.487C124.326 48.2212 139.133 33.4138 157.399 33.4138H181.223C199.488 33.4138 214.296 48.2212 214.296 66.487V77.5776C232.127 78.0757 246.428 92.6865 246.428 110.638V124.514C246.428 142.78 231.621 157.588 213.355 157.588H189.531C181.167 157.588 173.528 154.483 167.704 149.363C161.88 154.483 154.241 157.588 145.877 157.588H122.054C103.788 157.588 88.9805 142.78 88.9805 124.514V110.638C88.9805 92.3718 103.788 77.5645 122.054 77.5645H124.326V66.487Z" fill="#66A865"/>
<path fill-rule="evenodd" clip-rule="evenodd" d="M123.068 48.5557C123.068 30.2899 137.875 15.4825 156.141 15.4825H179.965C198.23 15.4825 213.038 30.2899 213.038 48.5557V59.6463C230.869 60.1444 245.17 74.7552 245.17 92.7063V106.583C245.17 124.849 230.363 139.656 212.097 139.656H188.273C179.909 139.656 172.27 136.552 166.446 131.432C160.622 136.552 152.984 139.656 144.62 139.656H120.796C102.53 139.656 87.7227 124.849 87.7227 106.583V92.7063C87.7227 74.4405 102.53 59.6332 120.796 59.6332H123.068V48.5557Z" fill="#66A865"/>
<path fill-rule="evenodd" clip-rule="evenodd" d="M50.176 43.1173C50.176 24.9858 64.8745 10.2873 83.006 10.2873H91.1675C109.299 10.2873 123.998 24.9858 123.998 43.1173C123.998 44.4665 123.916 45.7966 123.758 47.1032C138.912 50.0126 150.361 63.3409 150.361 79.3434C150.361 97.4749 135.663 112.173 117.531 112.173H109.37C100.105 112.173 91.7366 108.336 85.7675 102.163C79.7985 108.336 71.4301 112.173 62.1654 112.173H54.0039C35.8723 112.173 21.1738 97.4749 21.1738 79.3434C21.1738 62.4399 33.9487 48.5202 50.3705 46.7122C50.2419 45.5316 50.176 44.3321 50.176 43.1173Z" fill="#66A865"/>
<path fill-rule="evenodd" clip-rule="evenodd" d="M79.3754 73.1008C79.3754 55.6259 93.5417 41.4597 111.017 41.4597H118.883C136.358 41.4597 150.524 55.6259 150.524 73.1008C150.524 74.4011 150.445 75.6831 150.293 76.9423C164.899 79.7459 175.934 92.5919 175.934 108.015C175.934 125.49 161.768 139.656 144.293 139.656H136.427C127.497 139.656 119.432 135.958 113.679 130.009C107.926 135.958 99.8604 139.656 90.9311 139.656H83.065C65.5901 139.656 51.4238 125.49 51.4238 108.015C51.4238 91.724 63.736 78.3083 79.563 76.5657C79.439 75.4278 79.3754 74.2717 79.3754 73.1008Z" fill="#66A865"/>
<path fill-rule="evenodd" clip-rule="evenodd" d="M4.56283 109.006C10.1636 119.315 21.0863 126.313 33.6435 126.313H56.4785C59.6014 126.313 62.6233 125.881 65.4873 125.072C67.0753 126.904 68.9367 128.603 71.0675 130.124L82.921 138.588C97.7866 149.202 120.137 147.167 132.842 134.044L141.064 125.552C155.913 135.284 177.468 133.03 189.856 120.235L194.98 114.942H213.927C228.865 114.942 241.49 105.039 245.594 91.4393C245.692 92.4765 245.742 93.5276 245.742 94.5904V103.457C246.561 106.338 247 109.379 247 112.522V126.399C247 144.664 232.193 159.472 213.927 159.472H207.144C208.06 167.439 205.347 175.789 198.825 182.525L188.271 193.426C175.884 206.221 154.329 208.475 139.48 198.743L131.259 207.235C118.553 220.359 96.203 222.393 81.3374 211.779L69.4839 203.316C58.2254 195.277 54.4891 182.289 58.8579 170.759C58.072 170.815 57.2786 170.843 56.4785 170.843H33.6435C15.3777 170.843 0.570312 156.036 0.570312 137.77V124.772C0.570312 119.064 2.01664 113.693 4.56283 109.006Z" fill="#458244"/>
<path d="M113.223 146.448H134.397L151.654 288H95.6934L113.223 146.448Z" fill="#93642D"/>
<path d="M113.072 146.448H134.549L143.643 222.636H103.926L113.072 146.448Z" fill="#714D22"/>
<path fill-rule="evenodd" clip-rule="evenodd" d="M107.274 206.766C74.159 186.291 70.1338 155.525 72.4505 142.096L87.4118 143.999C85.6953 153.949 88.7282 179.294 116.111 196.225L107.274 206.766Z" fill="#714D22"/>
<path fill-rule="evenodd" clip-rule="evenodd" d="M132.287 185.984C165.402 165.509 169.427 134.744 167.11 121.314L152.149 123.218C153.865 133.167 150.832 158.512 123.449 175.444L132.287 185.984Z" fill="#714D22"/>
<path fill-rule="evenodd" clip-rule="evenodd" d="M86.096 97.4567C86.096 82.8704 97.9206 71.0459 112.507 71.0459H119.073C133.659 71.0459 145.483 82.8704 145.483 97.4567C145.483 98.5421 145.418 99.6121 145.291 100.663C157.482 103.003 166.693 113.726 166.693 126.6C166.693 141.186 154.869 153.011 140.282 153.011H133.717C126.263 153.011 119.531 149.923 114.729 144.958C109.927 149.923 103.195 153.011 95.7422 153.011H89.1764C74.5902 153.011 62.7656 141.186 62.7656 126.6C62.7656 113.002 73.0422 101.804 86.2526 100.349C86.1491 99.3991 86.096 98.4341 86.096 97.4567Z" fill="#66A865"/>
<path fill-rule="evenodd" clip-rule="evenodd" d="M139.479 107.796C139.479 97.5739 147.766 89.2875 157.987 89.2875H162.589C172.81 89.2875 181.097 97.5739 181.097 107.796C181.097 108.556 181.051 109.306 180.962 110.043C189.505 111.683 195.96 119.197 195.96 128.219C195.96 138.441 187.673 146.727 177.451 146.727H172.85C167.627 146.727 162.909 144.564 159.544 141.084C156.179 144.564 151.461 146.727 146.238 146.727H141.637C131.415 146.727 123.129 138.441 123.129 128.219C123.129 118.689 130.331 110.842 139.589 109.823C139.516 109.157 139.479 108.481 139.479 107.796Z" fill="#66A865"/>
<path fill-rule="evenodd" clip-rule="evenodd" d="M111.181 48.643C123.726 56.1641 126.416 71.4619 117.189 82.8116C107.963 94.1612 90.3135 97.2649 77.7685 89.7437L73.6287 87.2618C73.1511 86.9755 72.6878 86.6779 72.2389 86.3696C62.5431 93.2131 48.7924 94.2049 38.4865 88.0262L34.3467 85.5443C21.8017 78.0232 19.1116 62.7254 28.3382 51.3758C33.3278 45.238 40.7807 41.5118 48.5574 40.5734C46.9029 33.9806 48.4074 26.6881 53.3971 20.5503C62.6236 9.2006 80.273 6.09696 92.8179 13.6181L96.9577 16.1C107.84 22.6241 111.306 34.9997 106.012 45.5741C106.359 45.762 106.702 45.9577 107.041 46.1611L111.181 48.643Z" fill="#83C082"/>
<path d="M68.7934 50.0953C67.6391 48.5889 67.0059 46.4532 67.0059 44.086C67.0059 40.6 69.3384 39 72.5059 39C75.8058 39 78.0059 40.6 78.0059 44.086C78.0059 46.458 77.3332 48.5953 76.2574 50.0953L73.3273 54.7718C73.0249 55.2544 71.9895 55.2537 71.6886 54.7707L68.7934 50.0953Z" fill="#F9D622"/>
<path d="M66.6121 56.7756C64.778 57.3746 62.4877 57.2986 60.166 56.5671C56.747 55.4898 55.8985 52.8443 56.8773 49.9231C57.8971 46.8798 60.1462 45.3452 63.5652 46.4225C65.8916 47.1555 67.7799 48.4363 68.9186 49.892L72.5997 54.0393C72.9796 54.4673 72.659 55.422 72.0923 55.5503L66.6121 56.7756Z" fill="#F9D622"/>
<path d="M72.5508 61.2688C72.5716 63.1454 71.7893 65.2341 70.3544 67.1492C68.2413 69.9694 65.3844 69.9344 62.8219 68.129C60.1521 66.2481 59.3421 63.6997 61.4552 60.8795C62.893 58.9605 64.7327 57.6148 66.5123 57.0145L71.7175 54.9012C72.2546 54.6831 73.0919 55.2738 73.0426 55.8361L72.5508 61.2688Z" fill="#F9D622"/>
<path d="M78.6253 56.9121C80.4723 57.4728 82.2791 58.8397 83.714 60.7548C85.827 63.5751 84.9098 66.199 82.3473 68.0044C79.6775 69.8853 76.9278 69.8448 74.8148 67.0245C73.377 65.1055 72.6256 62.9931 72.5868 61.1664L72.1226 55.7129C72.0747 55.1501 72.9128 54.5605 73.449 54.7798L78.6253 56.9121Z" fill="#F9D622"/>
<path d="M76.1977 49.9484C77.3184 48.4184 79.2174 47.1745 81.5391 46.4429C84.9581 45.3657 87.2481 47.0224 88.2269 49.9436C89.2467 52.9869 88.3573 55.5103 84.9383 56.5875C82.6119 57.3205 80.3078 57.3607 78.5042 56.832L73.0122 55.5749C72.4454 55.4451 72.1261 54.49 72.5069 54.0632L76.1977 49.9484Z" fill="#F9D622"/>
<g style="mix-blend-mode:multiply">
<path d="M69.3146 53.9494C68.7162 55.6554 69.6573 57.5087 71.4166 58.089C73.1759 58.6692 75.0872 57.7566 75.6856 56.0507C76.284 54.3447 75.3429 52.4913 73.5836 51.9111C71.8243 51.3308 69.913 52.2434 69.3146 53.9494Z" fill="#F9D622"/>
<path fill-rule="evenodd" clip-rule="evenodd" d="M59.6769 54.6261L84.9098 54.9612L84.9041 55.369L59.6712 55.0339L59.6769 54.6261Z" fill="#F9D622"/>
<path d="M85.1086 55.7796C84.7602 55.7749 84.4816 55.4973 84.4864 55.1595C84.4912 54.8217 84.7775 54.5515 85.1259 54.5562C85.4743 54.5608 85.7528 54.8384 85.7481 55.1762C85.7433 55.5141 85.457 55.7842 85.1086 55.7796Z" fill="#F9D622"/>
<path d="M59.8757 55.4445C59.5273 55.4399 59.2487 55.1623 59.2535 54.8244C59.2583 54.4866 59.5445 54.2165 59.8929 54.2211C60.2413 54.2257 60.5199 54.5033 60.5151 54.8412C60.5104 55.179 60.2241 55.4491 59.8757 55.4445Z" fill="#F9D622"/>
<path fill-rule="evenodd" clip-rule="evenodd" d="M62.3529 47.3883L82.5637 62.0415L82.3118 62.3681L62.101 47.7149L62.3529 47.3883Z" fill="#F9D622"/>
<path d="M82.2284 62.8169C81.9493 62.6145 81.8923 62.2312 82.1009 61.9606C82.3095 61.69 82.7049 61.6346 82.9839 61.8369C83.263 62.0393 83.3201 62.4226 83.1114 62.6932C82.9028 62.9638 82.5074 63.0192 82.2284 62.8169Z" fill="#F9D622"/>
<path d="M62.0176 48.1637C61.7386 47.9614 61.6815 47.578 61.8901 47.3074C62.0988 47.0368 62.4941 46.9815 62.7732 47.1838C63.0522 47.3861 63.1093 47.7695 62.9007 48.0401C62.692 48.3107 62.2967 48.366 62.0176 48.1637Z" fill="#F9D622"/>
<path fill-rule="evenodd" clip-rule="evenodd" d="M68.905 43.0581L76.3738 66.4323L75.9721 66.553L68.5033 43.1788L68.905 43.0581Z" fill="#F9D622"/>
<path d="M75.6326 66.8685C75.5294 66.5458 75.7156 66.2031 76.0485 66.1031C76.3813 66.0031 76.7347 66.1837 76.8378 66.5064C76.9409 66.8291 76.7547 67.1718 76.4219 67.2718C76.0891 67.3718 75.7357 67.1913 75.6326 66.8685Z" fill="#F9D622"/>
<path d="M68.1638 43.4943C68.0607 43.1715 68.2469 42.8288 68.5797 42.7288C68.9125 42.6288 69.2659 42.8094 69.369 43.1321C69.4721 43.4549 69.2859 43.7976 68.9531 43.8975C68.6203 43.9975 68.2669 43.817 68.1638 43.4943Z" fill="#F9D622"/>
<path fill-rule="evenodd" clip-rule="evenodd" d="M76.8306 43.2893L68.7046 66.4565L68.3064 66.3251L76.4324 43.1579L76.8306 43.2893Z" fill="#F9D622"/>
<path d="M67.8405 66.3869C67.9527 66.067 68.3111 65.8959 68.641 66.0047C68.9708 66.1135 69.1473 66.461 69.0351 66.7808C68.9229 67.1007 68.5645 67.2718 68.2347 67.163C67.9048 67.0542 67.7283 66.7067 67.8405 66.3869Z" fill="#F9D622"/>
<path d="M75.9665 43.2197C76.0787 42.8998 76.4371 42.7287 76.767 42.8375C77.0968 42.9463 77.2733 43.2938 77.1611 43.6137C77.0489 43.9335 76.6905 44.1046 76.3607 43.9958C76.0308 43.887 75.8543 43.5395 75.9665 43.2197Z" fill="#F9D622"/>
<path fill-rule="evenodd" clip-rule="evenodd" d="M83.1024 47.9938L62.4854 62.1048L62.2429 61.7716L82.8598 47.6606L83.1024 47.9938Z" fill="#F9D622"/>
<path d="M61.8285 61.556C62.1132 61.3611 62.5068 61.427 62.7078 61.703C62.9087 61.979 62.8408 62.3607 62.5561 62.5556C62.2715 62.7504 61.8778 62.6846 61.6769 62.4086C61.476 62.1325 61.5439 61.7508 61.8285 61.556Z" fill="#F9D622"/>
<path d="M82.4455 47.4449C82.7302 47.2501 83.1238 47.3159 83.3247 47.592C83.5256 47.868 83.4578 48.2497 83.1731 48.4446C82.8884 48.6394 82.4948 48.5736 82.2939 48.2975C82.093 48.0215 82.1608 47.6398 82.4455 47.4449Z" fill="#F9D622"/>
<path fill-rule="evenodd" clip-rule="evenodd" d="M85.3247 55.3745L60.0918 55.0394L60.0975 54.6316L85.3304 54.9667L85.3247 55.3745Z" fill="#F9D622"/>
<path d="M59.8929 54.2211C60.2413 54.2257 60.5199 54.5033 60.5151 54.8412C60.5104 55.179 60.2241 55.4491 59.8757 55.4445C59.5273 55.4399 59.2487 55.1623 59.2535 54.8244C59.2583 54.4866 59.5445 54.2165 59.8929 54.2211Z" fill="#F9D622"/>
<path d="M85.1259 54.5562C85.4743 54.5608 85.7528 54.8384 85.7481 55.1762C85.7433 55.5141 85.457 55.7842 85.1086 55.7796C84.7602 55.7749 84.4816 55.4973 84.4864 55.1595C84.4912 54.8217 84.7775 54.5515 85.1259 54.5562Z" fill="#F9D622"/>
<path fill-rule="evenodd" clip-rule="evenodd" d="M82.6487 62.6123L62.4379 47.9591L62.6898 47.6325L82.9005 62.2857L82.6487 62.6123Z" fill="#F9D622"/>
<path d="M62.7732 47.1838C63.0522 47.3861 63.1093 47.7695 62.9007 48.0401C62.692 48.3107 62.2967 48.366 62.0176 48.1637C61.7386 47.9614 61.6815 47.578 61.8901 47.3074C62.0988 47.0368 62.4941 46.9815 62.7732 47.1838Z" fill="#F9D622"/>
<path d="M82.9839 61.8369C83.263 62.0393 83.3201 62.4226 83.1114 62.6932C82.9028 62.9638 82.5074 63.0192 82.2284 62.8169C81.9493 62.6145 81.8923 62.2312 82.1009 61.9606C82.3095 61.69 82.7049 61.6346 82.9839 61.8369Z" fill="#F9D622"/>
<path fill-rule="evenodd" clip-rule="evenodd" d="M76.0965 66.9427L68.6278 43.5684L69.0295 43.4477L76.4983 66.8219L76.0965 66.9427Z" fill="#F9D622"/>
<path d="M69.369 43.1321C69.4721 43.4549 69.2859 43.7976 68.9531 43.8975C68.6203 43.9975 68.2669 43.817 68.1638 43.4943C68.0607 43.1715 68.2469 42.8288 68.5797 42.7288C68.9125 42.6288 69.2659 42.8094 69.369 43.1321Z" fill="#F9D622"/>
<path d="M76.8378 66.5064C76.9409 66.8291 76.7547 67.1718 76.4219 67.2718C76.0891 67.3718 75.7357 67.1913 75.6326 66.8685C75.5294 66.5458 75.7156 66.2031 76.0485 66.1031C76.3813 66.0031 76.7347 66.1837 76.8378 66.5064Z" fill="#F9D622"/>
<path fill-rule="evenodd" clip-rule="evenodd" d="M68.171 66.7113L76.297 43.5442L76.6952 43.6755L68.5692 66.8427L68.171 66.7113Z" fill="#F9D622"/>
<path d="M77.1611 43.6137C77.0489 43.9335 76.6905 44.1046 76.3607 43.9958C76.0308 43.887 75.8543 43.5395 75.9665 43.2197C76.0787 42.8998 76.4371 42.7287 76.767 42.8375C77.0968 42.9463 77.2733 43.2938 77.1611 43.6137Z" fill="#F9D622"/>
<path d="M69.0351 66.7808C68.9229 67.1007 68.5645 67.2718 68.2347 67.163C67.9048 67.0542 67.7283 66.7067 67.8405 66.3869C67.9527 66.067 68.3111 65.8959 68.641 66.0047C68.9708 66.1135 69.1473 66.461 69.0351 66.7808Z" fill="#F9D622"/>
<path fill-rule="evenodd" clip-rule="evenodd" d="M61.8992 62.0068L82.5162 47.8958L82.7587 48.229L62.1417 62.34L61.8992 62.0068Z" fill="#F9D622"/>
<path d="M83.1731 48.4446C82.8884 48.6394 82.4948 48.5736 82.2939 48.2975C82.093 48.0215 82.1608 47.6398 82.4455 47.4449C82.7302 47.2501 83.1238 47.3159 83.3247 47.592C83.5256 47.868 83.4578 48.2497 83.1731 48.4446Z" fill="#F9D622"/>
<path d="M62.5561 62.5556C62.2715 62.7504 61.8778 62.6846 61.6769 62.4086C61.476 62.1325 61.5439 61.7508 61.8285 61.556C62.1132 61.3611 62.5068 61.427 62.7078 61.703C62.9087 61.979 62.8408 62.3607 62.5561 62.5556Z" fill="#F9D622"/>
<ellipse cx="1.67714" cy="1.63673" rx="1.67714" ry="1.63673" transform="matrix(-0.94968 -0.313223 -0.330985 0.943636 74.6348 53.9808)" fill="#F9D622"/>
</g>
<path d="M162.403 52.7486C161.284 51.2892 160.67 49.2203 160.67 46.9271C160.67 43.55 162.932 42 166.003 42C169.203 42 171.337 43.55 171.337 46.9271C171.337 49.225 170.684 51.2955 169.641 52.7486L166.8 57.2789C166.507 57.7464 165.502 57.7458 165.211 57.2778L162.403 52.7486Z" fill="#F9D622"/>
<path d="M160.289 59.2201C158.511 59.8004 156.29 59.7268 154.038 59.0182C150.723 57.9746 149.9 55.4117 150.849 52.5818C151.838 49.6336 154.019 48.147 157.334 49.1906C159.59 49.9007 161.421 51.1414 162.526 52.5516L166.095 56.5694C166.464 56.984 166.153 57.9089 165.603 58.0331L160.289 59.2201Z" fill="#F9D622"/>
<path d="M166.049 63.5729C166.069 65.3908 165.311 67.4142 163.919 69.2695C161.87 72.0016 159.1 71.9677 156.615 70.2187C154.026 68.3966 153.241 65.9279 155.29 63.1957C156.684 61.3367 158.468 60.0331 160.194 59.4515L165.241 57.4043C165.762 57.193 166.574 57.7653 166.526 58.31L166.049 63.5729Z" fill="#F9D622"/>
<path d="M171.939 59.3523C173.73 59.8956 175.482 61.2197 176.874 63.075C178.923 65.8071 178.033 68.349 175.549 70.098C172.96 71.9201 170.293 71.8809 168.244 69.1488C166.85 67.2898 166.121 65.2433 166.084 63.4737L165.634 58.1906C165.587 57.6454 166.4 57.0743 166.92 57.2867L171.939 59.3523Z" fill="#F9D622"/>
<path d="M169.585 52.6062C170.672 51.124 172.513 49.9189 174.764 49.2103C178.08 48.1667 180.301 49.7717 181.25 52.6015C182.239 55.5498 181.376 57.9943 178.061 59.0379C175.805 59.748 173.571 59.7868 171.822 59.2747L166.496 58.0568C165.946 57.9312 165.637 57.0059 166.006 56.5925L169.585 52.6062Z" fill="#F9D622"/>
<g style="mix-blend-mode:multiply">
<path d="M162.912 56.4822C162.332 58.1349 163.245 59.9303 164.951 60.4924C166.657 61.0545 168.51 60.1705 169.09 58.5178C169.671 56.8651 168.758 55.0697 167.052 54.5076C165.346 53.9454 163.493 54.8295 162.912 56.4822Z" fill="#F9D622"/>
<path fill-rule="evenodd" clip-rule="evenodd" d="M153.567 57.1378L178.035 57.4623L178.029 57.8574L153.561 57.5328L153.567 57.1378Z" fill="#F9D622"/>
<path d="M178.228 58.2552C177.89 58.2507 177.62 57.9817 177.624 57.6545C177.629 57.3272 177.907 57.0655 178.245 57.07C178.582 57.0745 178.853 57.3434 178.848 57.6707C178.843 57.998 178.566 58.2597 178.228 58.2552Z" fill="#F9D622"/>
<path d="M153.76 57.9306C153.422 57.9261 153.152 57.6572 153.156 57.3299C153.161 57.0026 153.438 56.7409 153.776 56.7454C154.114 56.7499 154.384 57.0188 154.38 57.3461C154.375 57.6734 154.097 57.9351 153.76 57.9306Z" fill="#F9D622"/>
<path fill-rule="evenodd" clip-rule="evenodd" d="M156.162 50.1261L175.76 64.3214L175.516 64.6378L155.917 50.4426L156.162 50.1261Z" fill="#F9D622"/>
<path d="M175.435 65.0725C175.164 64.8766 175.109 64.5052 175.311 64.243C175.514 63.9809 175.897 63.9273 176.168 64.1233C176.438 64.3192 176.493 64.6906 176.291 64.9528C176.089 65.2149 175.705 65.2685 175.435 65.0725Z" fill="#F9D622"/>
<path d="M155.837 50.8773C155.566 50.6813 155.511 50.3099 155.713 50.0478C155.915 49.7856 156.299 49.732 156.569 49.928C156.84 50.124 156.895 50.4954 156.693 50.7575C156.491 51.0197 156.107 51.0733 155.837 50.8773Z" fill="#F9D622"/>
<path fill-rule="evenodd" clip-rule="evenodd" d="M162.515 45.9312L169.758 68.575L169.368 68.692L162.126 46.0481L162.515 45.9312Z" fill="#F9D622"/>
<path d="M169.039 68.9976C168.939 68.6849 169.12 68.353 169.442 68.2561C169.765 68.1592 170.108 68.3341 170.208 68.6468C170.308 68.9594 170.127 69.2914 169.804 69.3883C169.482 69.4852 169.139 69.3102 169.039 68.9976Z" fill="#F9D622"/>
<path d="M161.796 46.3538C161.696 46.0411 161.877 45.7091 162.2 45.6123C162.523 45.5154 162.865 45.6903 162.965 46.003C163.065 46.3156 162.885 46.6476 162.562 46.7445C162.239 46.8413 161.896 46.6664 161.796 46.3538Z" fill="#F9D622"/>
<path fill-rule="evenodd" clip-rule="evenodd" d="M170.201 46.1552L162.321 68.5984L161.935 68.4712L169.815 46.028L170.201 46.1552Z" fill="#F9D622"/>
<path d="M161.483 68.531C161.592 68.2211 161.939 68.0553 162.259 68.1607C162.579 68.2661 162.75 68.6028 162.641 68.9127C162.533 69.2225 162.185 69.3883 161.865 69.2829C161.545 69.1775 161.374 68.8409 161.483 68.531Z" fill="#F9D622"/>
<path d="M169.363 46.0878C169.472 45.7779 169.819 45.6121 170.139 45.7175C170.459 45.8229 170.63 46.1596 170.521 46.4694C170.412 46.7793 170.065 46.9451 169.745 46.8397C169.425 46.7343 169.254 46.3976 169.363 46.0878Z" fill="#F9D622"/>
<path fill-rule="evenodd" clip-rule="evenodd" d="M176.282 50.7127L156.29 64.3827L156.055 64.0599L176.047 50.3899L176.282 50.7127Z" fill="#F9D622"/>
<path d="M155.653 63.8511C155.929 63.6623 156.311 63.7261 156.506 63.9935C156.701 64.2609 156.635 64.6307 156.359 64.8194C156.083 65.0082 155.701 64.9444 155.506 64.677C155.311 64.4096 155.377 64.0398 155.653 63.8511Z" fill="#F9D622"/>
<path d="M175.645 50.181C175.921 49.9923 176.303 50.056 176.498 50.3234C176.693 50.5908 176.627 50.9606 176.351 51.1494C176.075 51.3381 175.693 51.2743 175.498 51.0069C175.304 50.7395 175.369 50.3697 175.645 50.181Z" fill="#F9D622"/>
<path fill-rule="evenodd" clip-rule="evenodd" d="M178.437 57.8628L153.969 57.5382L153.975 57.1431L178.443 57.4677L178.437 57.8628Z" fill="#F9D622"/>
<path d="M153.776 56.7454C154.114 56.7499 154.384 57.0188 154.38 57.3461C154.375 57.6734 154.097 57.9351 153.76 57.9306C153.422 57.9261 153.152 57.6572 153.156 57.3299C153.161 57.0026 153.438 56.7409 153.776 56.7454Z" fill="#F9D622"/>
<path d="M178.245 57.07C178.582 57.0745 178.853 57.3434 178.848 57.6707C178.843 57.998 178.566 58.2597 178.228 58.2552C177.89 58.2507 177.62 57.9817 177.624 57.6545C177.629 57.3272 177.907 57.0655 178.245 57.07Z" fill="#F9D622"/>
<path fill-rule="evenodd" clip-rule="evenodd" d="M175.842 64.8744L156.244 50.6791L156.488 50.3627L176.087 64.558L175.842 64.8744Z" fill="#F9D622"/>
<path d="M156.569 49.928C156.84 50.124 156.895 50.4954 156.693 50.7575C156.491 51.0197 156.107 51.0733 155.837 50.8773C155.566 50.6813 155.511 50.3099 155.713 50.0478C155.915 49.7856 156.299 49.732 156.569 49.928Z" fill="#F9D622"/>
<path d="M176.168 64.1233C176.438 64.3192 176.493 64.6906 176.291 64.9528C176.089 65.2149 175.705 65.2685 175.435 65.0725C175.164 64.8766 175.109 64.5052 175.311 64.243C175.514 63.9809 175.897 63.9273 176.168 64.1233Z" fill="#F9D622"/>
<path fill-rule="evenodd" clip-rule="evenodd" d="M169.489 69.0694L162.246 46.4256L162.636 46.3087L169.878 68.9525L169.489 69.0694Z" fill="#F9D622"/>
<path d="M162.965 46.003C163.065 46.3156 162.885 46.6476 162.562 46.7445C162.239 46.8413 161.896 46.6664 161.796 46.3538C161.696 46.0411 161.877 45.7091 162.2 45.6123C162.523 45.5154 162.865 45.6903 162.965 46.003Z" fill="#F9D622"/>
<path d="M170.208 68.6468C170.308 68.9594 170.127 69.2914 169.804 69.3883C169.482 69.4852 169.139 69.3102 169.039 68.9976C168.939 68.6849 169.12 68.353 169.442 68.2561C169.765 68.1592 170.108 68.3341 170.208 68.6468Z" fill="#F9D622"/>
<path fill-rule="evenodd" clip-rule="evenodd" d="M161.803 68.8453L169.683 46.4021L170.069 46.5293L162.19 68.9726L161.803 68.8453Z" fill="#F9D622"/>
<path d="M170.521 46.4694C170.412 46.7793 170.065 46.9451 169.745 46.8397C169.425 46.7343 169.254 46.3976 169.363 46.0878C169.472 45.7779 169.819 45.6121 170.139 45.7175C170.459 45.8229 170.63 46.1596 170.521 46.4694Z" fill="#F9D622"/>
<path d="M162.641 68.9127C162.533 69.2225 162.185 69.3883 161.865 69.2829C161.545 69.1775 161.374 68.8409 161.483 68.531C161.592 68.2211 161.939 68.0553 162.259 68.1607C162.579 68.2661 162.75 68.6028 162.641 68.9127Z" fill="#F9D622"/>
<path fill-rule="evenodd" clip-rule="evenodd" d="M155.722 64.2878L175.714 50.6178L175.949 50.9406L155.957 64.6106L155.722 64.2878Z" fill="#F9D622"/>
<path d="M176.351 51.1494C176.075 51.3381 175.693 51.2743 175.498 51.0069C175.304 50.7395 175.369 50.3697 175.645 50.181C175.921 49.9923 176.303 50.056 176.498 50.3234C176.693 50.5908 176.627 50.9606 176.351 51.1494Z" fill="#F9D622"/>
<path d="M156.359 64.8194C156.083 65.0082 155.701 64.9444 155.506 64.677C155.311 64.4096 155.377 64.0398 155.653 63.8511C155.929 63.6623 156.311 63.7261 156.506 63.9935C156.701 64.2609 156.635 64.6307 156.359 64.8194Z" fill="#F9D622"/>
<ellipse cx="1.62616" cy="1.58575" rx="1.62616" ry="1.58575" transform="matrix(-0.949771 -0.312947 -0.331274 0.943535 168.07 56.5126)" fill="#F9D622"/>
</g>
<path d="M55.4033 129.095C54.2839 127.589 53.6699 125.453 53.6699 123.086C53.6699 119.6 55.9318 118 59.0033 118C62.2032 118 64.3366 119.6 64.3366 123.086C64.3366 125.458 63.6843 127.595 62.6411 129.095L59.7998 133.772C59.5066 134.254 58.5025 134.254 58.2107 133.771L55.4033 129.095Z" fill="#F9D622"/>
<path d="M53.289 135.776C51.5105 136.375 49.2896 136.299 47.0383 135.567C43.7229 134.49 42.9001 131.844 43.8493 128.923C44.8381 125.88 47.019 124.345 50.3344 125.422C52.5904 126.155 54.4215 127.436 55.5256 128.892L59.0952 133.039C59.4636 133.467 59.1527 134.422 58.6032 134.55L53.289 135.776Z" fill="#F9D622"/>
<path d="M59.049 140.269C59.0691 142.145 58.3106 144.234 56.9192 146.149C54.8701 148.969 52.0998 148.934 49.6149 147.129C47.0261 145.248 46.2406 142.7 48.2897 139.879C49.6839 137.96 51.4678 136.615 53.1935 136.014L58.241 133.901C58.7618 133.683 59.5737 134.274 59.5259 134.836L59.049 140.269Z" fill="#F9D622"/>
<path d="M64.9393 135.912C66.7303 136.473 68.4824 137.84 69.8738 139.755C71.9228 142.575 71.0334 145.199 68.5485 147.004C65.9597 148.885 63.2933 148.845 61.2443 146.025C59.85 144.106 59.1215 141.993 59.0838 140.166L58.6337 134.713C58.5873 134.15 59.4 133.561 59.9199 133.78L64.9393 135.912Z" fill="#F9D622"/>
<path d="M62.585 128.948C63.6717 127.418 65.5131 126.174 67.7645 125.443C71.0799 124.366 73.3005 126.022 74.2497 128.944C75.2385 131.987 74.3761 134.51 71.0607 135.588C68.8047 136.321 66.5705 136.361 64.8216 135.832L59.4959 134.575C58.9464 134.445 58.6367 133.49 59.0059 133.063L62.585 128.948Z" fill="#F9D622"/>
<g style="mix-blend-mode:multiply">
<path d="M55.9124 132.949C55.3322 134.655 56.2448 136.509 57.9508 137.089C59.6568 137.669 61.5101 136.757 62.0904 135.051C62.6706 133.345 61.758 131.491 60.052 130.911C58.3461 130.331 56.4927 131.243 55.9124 132.949Z" fill="#F9D622"/>
<path fill-rule="evenodd" clip-rule="evenodd" d="M46.5668 133.626L71.0351 133.961L71.0295 134.369L46.5612 134.034L46.5668 133.626Z" fill="#F9D622"/>
<path d="M71.2278 134.78C70.89 134.775 70.6199 134.497 70.6245 134.159C70.6291 133.822 70.9067 133.552 71.2446 133.556C71.5824 133.561 71.8525 133.838 71.8479 134.176C71.8433 134.514 71.5657 134.784 71.2278 134.78Z" fill="#F9D622"/>
<path d="M46.7595 134.445C46.4217 134.44 46.1516 134.162 46.1562 133.824C46.1608 133.487 46.4384 133.216 46.7763 133.221C47.1141 133.226 47.3842 133.503 47.3796 133.841C47.375 134.179 47.0974 134.449 46.7595 134.445Z" fill="#F9D622"/>
<path fill-rule="evenodd" clip-rule="evenodd" d="M49.1617 126.388L68.76 141.041L68.5158 141.368L48.9175 126.715L49.1617 126.388Z" fill="#F9D622"/>
<path d="M68.4349 141.817C68.1643 141.615 68.1089 141.231 68.3113 140.961C68.5136 140.69 68.897 140.635 69.1676 140.837C69.4381 141.039 69.4935 141.423 69.2912 141.693C69.0889 141.964 68.7055 142.019 68.4349 141.817Z" fill="#F9D622"/>
<path d="M48.8366 127.164C48.566 126.961 48.5106 126.578 48.7129 126.307C48.9153 126.037 49.2986 125.981 49.5692 126.184C49.8398 126.386 49.8952 126.769 49.6929 127.04C49.4905 127.311 49.1072 127.366 48.8366 127.164Z" fill="#F9D622"/>
<path fill-rule="evenodd" clip-rule="evenodd" d="M55.5153 122.058L62.7577 145.432L62.3682 145.553L55.1257 122.179L55.5153 122.058Z" fill="#F9D622"/>
<path d="M62.0389 145.869C61.9389 145.546 62.1195 145.203 62.4422 145.103C62.765 145.003 63.1077 145.184 63.2077 145.506C63.3077 145.829 63.1271 146.172 62.8044 146.272C62.4816 146.372 62.1389 146.191 62.0389 145.869Z" fill="#F9D622"/>
<path d="M54.7965 122.494C54.6965 122.172 54.877 121.829 55.1998 121.729C55.5225 121.629 55.8652 121.809 55.9652 122.132C56.0652 122.455 55.8846 122.798 55.5619 122.898C55.2392 122.998 54.8965 122.817 54.7965 122.494Z" fill="#F9D622"/>
<path fill-rule="evenodd" clip-rule="evenodd" d="M63.2007 122.289L55.3209 145.456L54.9348 145.325L62.8146 122.158L63.2007 122.289Z" fill="#F9D622"/>
<path d="M54.483 145.387C54.5918 145.067 54.9393 144.896 55.2592 145.005C55.5791 145.113 55.7502 145.461 55.6414 145.781C55.5326 146.101 55.1851 146.272 54.8652 146.163C54.5453 146.054 54.3742 145.707 54.483 145.387Z" fill="#F9D622"/>
<path d="M62.3628 122.22C62.4716 121.9 62.8191 121.729 63.139 121.837C63.4588 121.946 63.63 122.294 63.5212 122.614C63.4124 122.934 63.0649 123.105 62.745 122.996C62.4251 122.887 62.254 122.54 62.3628 122.22Z" fill="#F9D622"/>
<path fill-rule="evenodd" clip-rule="evenodd" d="M69.2824 126.994L49.2902 141.105L49.055 140.772L69.0472 126.661L69.2824 126.994Z" fill="#F9D622"/>
<path d="M48.6532 140.556C48.9293 140.361 49.311 140.427 49.5058 140.703C49.7006 140.979 49.6348 141.361 49.3588 141.556C49.0827 141.75 48.701 141.685 48.5062 141.409C48.3114 141.133 48.3772 140.751 48.6532 140.556Z" fill="#F9D622"/>
<path d="M68.6454 126.445C68.9215 126.25 69.3032 126.316 69.498 126.592C69.6928 126.868 69.627 127.25 69.351 127.445C69.0749 127.639 68.6932 127.574 68.4984 127.298C68.3036 127.021 68.3694 126.64 68.6454 126.445Z" fill="#F9D622"/>
<path fill-rule="evenodd" clip-rule="evenodd" d="M71.4374 134.374L46.9691 134.039L46.9746 133.632L71.4429 133.967L71.4374 134.374Z" fill="#F9D622"/>
<path d="M46.7763 133.221C47.1141 133.226 47.3842 133.503 47.3796 133.841C47.375 134.179 47.0974 134.449 46.7595 134.445C46.4217 134.44 46.1516 134.162 46.1562 133.824C46.1608 133.487 46.4384 133.216 46.7763 133.221Z" fill="#F9D622"/>
<path d="M71.2446 133.556C71.5824 133.561 71.8525 133.838 71.8479 134.176C71.8433 134.514 71.5657 134.784 71.2278 134.78C70.89 134.775 70.6199 134.497 70.6245 134.159C70.6291 133.822 70.9067 133.552 71.2446 133.556Z" fill="#F9D622"/>
<path fill-rule="evenodd" clip-rule="evenodd" d="M68.8425 141.612L49.2441 126.959L49.4884 126.632L69.0867 141.286L68.8425 141.612Z" fill="#F9D622"/>
<path d="M49.5692 126.184C49.8398 126.386 49.8952 126.769 49.6929 127.04C49.4905 127.311 49.1072 127.366 48.8366 127.164C48.566 126.961 48.5106 126.578 48.7129 126.307C48.9153 126.037 49.2986 125.981 49.5692 126.184Z" fill="#F9D622"/>
<path d="M69.1676 140.837C69.4381 141.039 69.4935 141.423 69.2912 141.693C69.0889 141.964 68.7055 142.019 68.4349 141.817C68.1643 141.615 68.1089 141.231 68.3113 140.961C68.5136 140.69 68.897 140.635 69.1676 140.837Z" fill="#F9D622"/>
<path fill-rule="evenodd" clip-rule="evenodd" d="M62.4889 145.943L55.2464 122.568L55.636 122.448L62.8784 145.822L62.4889 145.943Z" fill="#F9D622"/>
<path d="M55.9652 122.132C56.0652 122.455 55.8846 122.798 55.5619 122.898C55.2392 122.998 54.8965 122.817 54.7965 122.494C54.6965 122.172 54.877 121.829 55.1998 121.729C55.5225 121.629 55.8652 121.809 55.9652 122.132Z" fill="#F9D622"/>
<path d="M63.2077 145.506C63.3077 145.829 63.1271 146.172 62.8044 146.272C62.4816 146.372 62.1389 146.191 62.0389 145.869C61.9389 145.546 62.1195 145.203 62.4422 145.103C62.765 145.003 63.1077 145.184 63.2077 145.506Z" fill="#F9D622"/>
<path fill-rule="evenodd" clip-rule="evenodd" d="M54.8035 145.711L62.6832 122.544L63.0694 122.675L55.1896 145.843L54.8035 145.711Z" fill="#F9D622"/>
<path d="M63.5212 122.614C63.4124 122.934 63.0649 123.105 62.745 122.996C62.4251 122.887 62.254 122.54 62.3628 122.22C62.4716 121.9 62.8191 121.729 63.139 121.837C63.4588 121.946 63.63 122.294 63.5212 122.614Z" fill="#F9D622"/>
<path d="M55.6414 145.781C55.5326 146.101 55.1851 146.272 54.8652 146.163C54.5453 146.054 54.3742 145.707 54.483 145.387C54.5918 145.067 54.9393 144.896 55.2592 145.005C55.5791 145.113 55.7502 145.461 55.6414 145.781Z" fill="#F9D622"/>
<path fill-rule="evenodd" clip-rule="evenodd" d="M48.7217 141.007L68.714 126.896L68.9491 127.229L48.9569 141.34L48.7217 141.007Z" fill="#F9D622"/>
<path d="M69.351 127.445C69.0749 127.639 68.6932 127.574 68.4984 127.298C68.3036 127.021 68.3694 126.64 68.6454 126.445C68.9215 126.25 69.3032 126.316 69.498 126.592C69.6928 126.868 69.627 127.25 69.351 127.445Z" fill="#F9D622"/>
<path d="M49.3588 141.556C49.0827 141.75 48.701 141.685 48.5062 141.409C48.3114 141.133 48.3772 140.751 48.6532 140.556C48.9293 140.361 49.311 140.427 49.5058 140.703C49.7006 140.979 49.6348 141.361 49.3588 141.556Z" fill="#F9D622"/>
<circle cx="1.63137" cy="1.63137" r="1.63137" transform="matrix(-0.946736 -0.32201 -0.32201 0.946736 61.0703 132.981)" fill="#F9D622"/>
</g>
<path d="M176.403 154.402C175.284 152.99 174.67 150.987 174.67 148.768C174.67 145.5 176.932 144 180.003 144C183.203 144 185.337 145.5 185.337 148.768C185.337 150.992 184.684 152.996 183.641 154.402L180.8 158.786C180.507 159.238 179.502 159.238 179.211 158.785L176.403 154.402Z" fill="#F9D622"/>
<path d="M174.289 160.665C172.511 161.226 170.29 161.155 168.038 160.469C164.723 159.459 163.9 156.979 164.849 154.24C165.838 151.387 168.019 149.949 171.334 150.959C173.59 151.646 175.421 152.847 176.526 154.211L180.095 158.099C180.464 158.501 180.153 159.396 179.603 159.516L174.289 160.665Z" fill="#F9D622"/>
<path d="M180.049 164.877C180.069 166.636 179.311 168.594 177.919 170.39C175.87 173.034 173.1 173.001 170.615 171.308C168.026 169.545 167.241 167.156 169.29 164.512C170.684 162.713 172.468 161.451 174.194 160.889L179.241 158.907C179.762 158.703 180.574 159.257 180.526 159.784L180.049 164.877Z" fill="#F9D622"/>
<path d="M185.939 160.793C187.73 161.318 189.482 162.6 190.874 164.395C192.923 167.039 192.033 169.499 189.549 171.192C186.96 172.955 184.293 172.917 182.244 170.273C180.85 168.474 180.121 166.493 180.084 164.781L179.634 159.668C179.587 159.141 180.4 158.588 180.92 158.793L185.939 160.793Z" fill="#F9D622"/>
<path d="M183.585 154.264C184.672 152.83 186.513 151.664 188.764 150.978C192.08 149.968 194.301 151.521 195.25 154.26C196.239 157.113 195.376 159.478 192.061 160.488C189.805 161.175 187.571 161.213 185.822 160.717L180.496 159.539C179.946 159.417 179.637 158.522 180.006 158.122L183.585 154.264Z" fill="#F9D622"/>
<g style="mix-blend-mode:multiply">
<path d="M176.912 158.015C176.332 159.614 177.245 161.352 178.951 161.896C180.657 162.44 182.51 161.584 183.09 159.985C183.671 158.386 182.758 156.648 181.052 156.104C179.346 155.56 177.493 156.416 176.912 158.015Z" fill="#F9D622"/>
<path fill-rule="evenodd" clip-rule="evenodd" d="M167.567 158.649L192.035 158.964L192.029 159.346L167.561 159.032L167.567 158.649Z" fill="#F9D622"/>
<path d="M192.228 159.731C191.89 159.727 191.62 159.466 191.624 159.15C191.629 158.833 191.907 158.58 192.245 158.584C192.582 158.588 192.853 158.848 192.848 159.165C192.843 159.482 192.566 159.735 192.228 159.731Z" fill="#F9D622"/>
<path d="M167.76 159.417C167.422 159.412 167.152 159.152 167.156 158.835C167.161 158.519 167.438 158.265 167.776 158.27C168.114 158.274 168.384 158.534 168.38 158.851C168.375 159.168 168.097 159.421 167.76 159.417Z" fill="#F9D622"/>
<path fill-rule="evenodd" clip-rule="evenodd" d="M170.162 151.864L189.76 165.601L189.516 165.908L169.917 152.17L170.162 151.864Z" fill="#F9D622"/>
<path d="M189.435 166.328C189.164 166.139 189.109 165.779 189.311 165.526C189.514 165.272 189.897 165.22 190.168 165.41C190.438 165.599 190.493 165.959 190.291 166.212C190.089 166.466 189.705 166.518 189.435 166.328Z" fill="#F9D622"/>
<path d="M169.837 152.591C169.566 152.401 169.511 152.042 169.713 151.788C169.915 151.534 170.299 151.483 170.569 151.672C170.84 151.862 170.895 152.221 170.693 152.475C170.491 152.729 170.107 152.781 169.837 152.591Z" fill="#F9D622"/>
<path fill-rule="evenodd" clip-rule="evenodd" d="M176.515 147.804L183.758 169.718L183.368 169.831L176.126 147.918L176.515 147.804Z" fill="#F9D622"/>
<path d="M183.039 170.127C182.939 169.824 183.12 169.503 183.442 169.409C183.765 169.315 184.108 169.485 184.208 169.787C184.308 170.09 184.127 170.411 183.804 170.505C183.482 170.599 183.139 170.429 183.039 170.127Z" fill="#F9D622"/>
<path d="M175.796 148.213C175.696 147.911 175.877 147.59 176.2 147.496C176.523 147.402 176.865 147.571 176.965 147.874C177.065 148.176 176.885 148.498 176.562 148.591C176.239 148.685 175.896 148.516 175.796 148.213Z" fill="#F9D622"/>
<path fill-rule="evenodd" clip-rule="evenodd" d="M184.201 148.021L176.321 169.74L175.935 169.617L183.815 147.898L184.201 148.021Z" fill="#F9D622"/>
<path d="M175.483 169.675C175.592 169.375 175.939 169.215 176.259 169.317C176.579 169.419 176.75 169.745 176.641 170.045C176.533 170.344 176.185 170.505 175.865 170.403C175.545 170.301 175.374 169.975 175.483 169.675Z" fill="#F9D622"/>
<path d="M183.363 147.956C183.472 147.656 183.819 147.496 184.139 147.598C184.459 147.7 184.63 148.025 184.521 148.325C184.412 148.625 184.065 148.786 183.745 148.684C183.425 148.582 183.254 148.256 183.363 147.956Z" fill="#F9D622"/>
<path fill-rule="evenodd" clip-rule="evenodd" d="M190.282 152.432L170.29 165.661L170.055 165.348L190.047 152.119L190.282 152.432Z" fill="#F9D622"/>
<path d="M169.653 165.146C169.929 164.964 170.311 165.025 170.506 165.284C170.701 165.543 170.635 165.901 170.359 166.083C170.083 166.266 169.701 166.204 169.506 165.946C169.311 165.687 169.377 165.329 169.653 165.146Z" fill="#F9D622"/>
<path d="M189.645 151.917C189.921 151.734 190.303 151.796 190.498 152.055C190.693 152.314 190.627 152.672 190.351 152.854C190.075 153.037 189.693 152.975 189.498 152.716C189.304 152.458 189.369 152.1 189.645 151.917Z" fill="#F9D622"/>
<path fill-rule="evenodd" clip-rule="evenodd" d="M192.437 159.351L167.969 159.037L167.975 158.655L192.443 158.969L192.437 159.351Z" fill="#F9D622"/>
<path d="M167.776 158.27C168.114 158.274 168.384 158.534 168.38 158.851C168.375 159.168 168.097 159.421 167.76 159.417C167.422 159.412 167.152 159.152 167.156 158.835C167.161 158.519 167.438 158.265 167.776 158.27Z" fill="#F9D622"/>
<path d="M192.245 158.584C192.582 158.588 192.853 158.848 192.848 159.165C192.843 159.482 192.566 159.735 192.228 159.731C191.89 159.727 191.62 159.466 191.624 159.15C191.629 158.833 191.907 158.58 192.245 158.584Z" fill="#F9D622"/>
<path fill-rule="evenodd" clip-rule="evenodd" d="M189.842 166.137L170.244 152.399L170.488 152.093L190.087 165.83L189.842 166.137Z" fill="#F9D622"/>
<path d="M170.569 151.672C170.84 151.862 170.895 152.221 170.693 152.475C170.491 152.729 170.107 152.781 169.837 152.591C169.566 152.401 169.511 152.042 169.713 151.788C169.915 151.534 170.299 151.483 170.569 151.672Z" fill="#F9D622"/>
<path d="M190.168 165.41C190.438 165.599 190.493 165.959 190.291 166.212C190.089 166.466 189.705 166.518 189.435 166.328C189.164 166.139 189.109 165.779 189.311 165.526C189.514 165.272 189.897 165.22 190.168 165.41Z" fill="#F9D622"/>
<path fill-rule="evenodd" clip-rule="evenodd" d="M183.489 170.196L176.246 148.283L176.636 148.17L183.878 170.083L183.489 170.196Z" fill="#F9D622"/>
<path d="M176.965 147.874C177.065 148.176 176.885 148.498 176.562 148.591C176.239 148.685 175.896 148.516 175.796 148.213C175.696 147.911 175.877 147.59 176.2 147.496C176.523 147.402 176.865 147.571 176.965 147.874Z" fill="#F9D622"/>
<path d="M184.208 169.787C184.308 170.09 184.127 170.411 183.804 170.505C183.482 170.599 183.139 170.429 183.039 170.127C182.939 169.824 183.12 169.503 183.442 169.409C183.765 169.315 184.108 169.485 184.208 169.787Z" fill="#F9D622"/>
<path fill-rule="evenodd" clip-rule="evenodd" d="M175.803 169.979L183.683 148.26L184.069 148.383L176.19 170.102L175.803 169.979Z" fill="#F9D622"/>
<path d="M184.521 148.325C184.412 148.625 184.065 148.786 183.745 148.684C183.425 148.582 183.254 148.256 183.363 147.956C183.472 147.656 183.819 147.496 184.139 147.598C184.459 147.7 184.63 148.025 184.521 148.325Z" fill="#F9D622"/>
<path d="M176.641 170.045C176.533 170.344 176.185 170.505 175.865 170.403C175.545 170.301 175.374 169.975 175.483 169.675C175.592 169.375 175.939 169.215 176.259 169.317C176.579 169.419 176.75 169.745 176.641 170.045Z" fill="#F9D622"/>
<path fill-rule="evenodd" clip-rule="evenodd" d="M169.722 165.569L189.714 152.34L189.949 152.652L169.957 165.881L169.722 165.569Z" fill="#F9D622"/>
<path d="M190.351 152.854C190.075 153.037 189.693 152.975 189.498 152.716C189.304 152.458 189.369 152.1 189.645 151.917C189.921 151.734 190.303 151.796 190.498 152.055C190.693 152.314 190.627 152.672 190.351 152.854Z" fill="#F9D622"/>
<path d="M170.359 166.083C170.083 166.266 169.701 166.204 169.506 165.946C169.311 165.687 169.377 165.329 169.653 165.146C169.929 164.964 170.311 165.025 170.506 165.284C170.701 165.543 170.635 165.901 170.359 166.083Z" fill="#F9D622"/>
<ellipse cx="1.6211" cy="1.5403" rx="1.6211" ry="1.5403" transform="matrix(-0.952736 -0.303798 -0.34105 0.940045 182.07 158.044)" fill="#F9D622"/>
</g>
</svg>
