<svg width="127" height="177" viewBox="0 0 127 177" fill="none" xmlns="http://www.w3.org/2000/svg">
<path d="M85.4275 46.333C85.4275 64.3769 75.6548 80.7196 59.8168 92.6534L59.7997 92.666C43.9503 80.7322 34.1719 64.3811 34.1719 46.333C34.1719 28.2849 43.9503 11.9338 59.7997 0C75.649 11.9338 85.4275 28.2849 85.4275 46.333Z" fill="#87B272"/>
<path opacity="0.1" d="M85.4266 46.333C85.4266 64.3769 75.6539 80.7196 59.8159 92.6534H59.7988V0C75.6482 11.9338 85.4266 28.2849 85.4266 46.333Z" fill="#526B45"/>
<path d="M53.7673 50.9483C61.9226 67.9563 60.1002 85.7728 50.5667 100.932L50.5553 100.949C30.2239 93.6178 13.6171 80.6228 5.45606 63.6148C-2.69927 46.6026 -0.876879 28.7777 8.66805 13.6141C28.9994 20.9453 45.6063 33.9403 53.7673 50.9483Z" fill="#87B272"/>
<path opacity="0.1" d="M53.7672 50.9482C61.9225 67.9562 60.1001 85.7727 50.5666 100.932H50.5495L8.66797 13.6097C28.9994 20.941 45.6062 33.936 53.7672 50.944V50.9482Z" fill="#526B45"/>
<path d="M119.277 58.0268C112.904 75.4432 97.7042 89.3309 78.1986 97.7907L78.1758 97.7991C67.0875 83.2208 63.4256 65.5517 69.7984 48.1311C76.1711 30.7104 91.3827 16.8185 110.894 8.3587C121.982 22.937 125.644 40.6061 119.271 58.0268H119.277Z" fill="#87B272"/>
<path opacity="0.1" d="M119.277 58.0268C112.904 75.4432 97.7043 89.3309 78.1987 97.7907H78.1816L110.894 8.3587C121.982 22.937 125.644 40.6061 119.272 58.0268H119.277Z" fill="#526B45"/>
<path d="M11.959 101.075L12.2494 104.865L17.3636 172.169C17.5231 174.337 19.9492 176.03 22.8821 176.03H105.256C108.189 176.03 110.615 174.337 110.774 172.169L115.888 104.865L116.179 101.075H11.959ZM30.4794 121.444C34.1527 121.444 34.147 125.655 30.4794 125.655C26.8117 125.655 26.8174 121.444 30.4794 121.444ZM33.5433 135.782C33.344 135.862 33.1275 135.917 32.8884 135.954C32.8029 135.971 32.7118 135.98 32.6207 135.984C32.4954 136.001 32.3701 136.005 32.2334 136.005C31.9942 136.005 31.7721 135.988 31.5671 135.954C29.8073 135.672 29.1638 134.287 29.6308 133.188V133.179C29.9554 132.413 30.8267 131.794 32.2334 131.794C32.6833 131.794 33.082 131.857 33.418 131.971C35.4625 132.64 35.5024 135.045 33.5433 135.782ZM60.5379 151.514C60.4809 151.518 60.424 151.522 60.3671 151.522C60.3158 151.527 60.2702 151.527 60.219 151.527C57.7758 151.527 56.9614 149.653 57.7758 148.406C58.1802 147.783 58.9945 147.316 60.219 147.316C60.2702 147.316 60.3158 147.316 60.3671 147.32C61.1131 147.341 61.7054 147.547 62.1268 147.855C62.4116 148.057 62.628 148.309 62.7647 148.583C63.3741 149.766 62.628 151.367 60.5379 151.514Z" fill="#ED976B"/>
<path d="M124.152 84.6526H2.84753C1.27488 84.6526 0 85.5952 0 86.7581V98.9698C0 100.133 1.27488 101.075 2.84753 101.075H124.152C125.725 101.075 127 100.133 127 98.9698V86.7581C127 85.5952 125.725 84.6526 124.152 84.6526Z" fill="#ED976B"/>
<path d="M116.179 101.075L115.888 104.865H12.2494L11.959 101.075H116.179Z" fill="#C16E49"/>
<path opacity="0.1" d="M126.999 86.758V98.9697C126.999 100.132 125.724 101.075 124.152 101.075H116.179L115.888 104.865L110.774 172.169C110.615 174.337 108.188 176.03 105.255 176.03H64.3535V84.6525H124.152C125.724 84.6525 126.999 85.5958 126.999 86.758Z" fill="#ED976B"/>
<path d="M31.3576 124.379C32.4567 124.379 32.4567 123.115 31.3576 123.115C30.2584 123.115 30.2584 124.379 31.3576 124.379Z" fill="#ED976B"/>
<path d="M28.8281 122.13V123.174C28.8281 123.334 28.9249 123.507 29.0787 123.621C29.2325 123.734 29.4717 123.814 29.6824 123.806C29.8931 123.797 30.1323 123.747 30.2861 123.621C30.4398 123.494 30.5366 123.347 30.5366 123.174V122.13C30.5366 121.97 30.4398 121.797 30.2861 121.684C30.1323 121.57 29.8931 121.49 29.6824 121.498C29.4717 121.507 29.2325 121.557 29.0787 121.684C28.9249 121.81 28.8281 121.957 28.8281 122.13Z" fill="#ED976B"/>
<path d="M29.404 121.667C28.0999 121.566 27.2171 122.564 27.2741 123.431C27.331 124.299 27.8379 125.242 28.8174 125.73C29.7286 126.181 31.0043 126.151 31.9269 125.743C32.8495 125.334 33.4817 124.598 33.6526 123.827C33.8291 123.006 33.5785 122.096 32.7129 121.519C31.8472 120.942 30.6 120.719 29.592 121.149C28.5042 121.612 28.4757 122.745 28.601 123.557C28.6694 123.995 28.8118 124.459 29.3015 124.753C29.8938 125.107 30.7196 125.158 31.3005 124.758C31.7732 124.433 32.0409 123.882 32.1832 123.427C32.2573 123.183 32.3028 122.926 32.3142 122.677C32.3199 122.496 32.3313 122.286 32.1946 122.13C32.058 121.974 31.8301 121.852 31.5853 121.793C30.9303 121.637 30.207 121.903 29.8824 122.336C29.4837 122.871 29.7856 123.461 30.1615 123.945C30.3836 124.231 30.9474 124.353 31.329 124.172C31.7105 123.991 31.87 123.616 31.6365 123.309C31.5909 123.254 31.5511 123.195 31.5112 123.136C31.5112 123.136 31.4087 122.96 31.4542 123.048C31.4542 123.04 31.3859 122.85 31.4087 122.968C31.403 122.926 31.4429 122.77 31.4087 122.905L31.3688 122.972C31.4201 122.913 31.4087 122.917 31.3404 122.989C31.4884 122.926 31.1923 123.035 31.3574 122.976L31.2606 123.006C31.3347 122.993 31.3347 122.989 31.2606 123.002C31.2037 123.014 31.1467 123.01 31.0841 123.002C30.9702 122.96 30.9531 122.96 31.0328 123.002L30.6114 122.454C30.6171 122.585 30.6114 122.715 30.6 122.846C30.5829 123.048 30.6342 122.741 30.5829 122.938C30.5658 123.002 30.5487 123.065 30.5316 123.132C30.4405 123.414 30.3665 123.553 30.2014 123.768L30.1615 123.819C30.1045 123.882 30.1045 123.886 30.1558 123.831L30.0988 123.873C30.1615 123.819 30.2412 123.793 30.3266 123.793H30.3722C30.2754 123.793 30.2811 123.793 30.395 123.797L30.4633 123.823C30.3836 123.785 30.3779 123.789 30.4576 123.831L30.4064 123.793C30.4633 123.852 30.4633 123.848 30.4064 123.789C30.2925 123.675 30.4121 123.873 30.3722 123.73C30.3551 123.675 30.338 123.616 30.3209 123.562C30.2754 123.423 30.3266 123.671 30.3095 123.49C30.2811 123.208 30.264 122.926 30.2982 122.639C30.2982 122.597 30.3095 122.555 30.3152 122.517C30.2925 122.673 30.3266 122.496 30.3323 122.471C30.3494 122.416 30.3722 122.366 30.3893 122.315C30.4234 122.248 30.4234 122.248 30.3893 122.319C30.4121 122.29 30.4348 122.26 30.4633 122.231C30.3437 122.366 30.5715 122.185 30.4064 122.273C30.4462 122.252 30.4918 122.235 30.5373 122.218C30.3722 122.282 30.5943 122.218 30.6171 122.21C30.8164 122.159 30.4633 122.202 30.674 122.202C30.7481 122.202 30.8164 122.202 30.8904 122.202C31.1125 122.202 30.731 122.164 30.9474 122.21C30.993 122.218 31.0385 122.227 31.0841 122.235C31.1296 122.244 31.1752 122.256 31.2208 122.269C31.1239 122.239 31.1296 122.239 31.2208 122.269C31.2834 122.294 31.3461 122.319 31.4087 122.349C31.4372 122.362 31.6137 122.471 31.4713 122.378C31.5625 122.437 31.6479 122.501 31.7276 122.568C31.6023 122.463 31.7561 122.602 31.7675 122.618C31.8074 122.669 31.8472 122.719 31.8814 122.774C31.9896 122.926 31.8529 122.673 31.9155 122.842C31.944 122.917 31.9725 122.993 31.9953 123.069C32.0579 123.242 31.9953 122.997 32.0067 123.103C32.0067 123.153 32.0181 123.2 32.0181 123.25C32.0181 123.309 32.0181 123.368 32.0181 123.427C32.0181 123.44 31.9896 123.637 32.0181 123.494C31.9953 123.608 31.9611 123.726 31.9155 123.835C31.8985 123.869 31.8814 123.903 31.87 123.941C31.8358 124.008 31.8358 124.008 31.87 123.941C31.8472 123.974 31.8301 124.008 31.8073 124.042C31.739 124.143 31.6593 124.231 31.5796 124.324C31.4543 124.467 31.6934 124.248 31.5283 124.37C31.4941 124.395 31.4599 124.425 31.4258 124.45C31.3745 124.488 31.3176 124.526 31.2663 124.564C31.1012 124.678 31.3973 124.513 31.2037 124.598C31.141 124.627 31.0784 124.657 31.0158 124.682C30.9702 124.699 30.9303 124.715 30.8847 124.732C30.9759 124.707 30.9759 124.707 30.8847 124.732C30.7651 124.758 30.6455 124.783 30.5259 124.8C30.7253 124.774 30.4918 124.8 30.4576 124.8C30.3836 124.8 30.3096 124.8 30.2355 124.8C30.0077 124.8 30.3893 124.833 30.1672 124.791C30.1216 124.783 30.0703 124.774 30.0248 124.766C29.9963 124.762 29.7799 124.694 29.9564 124.753C29.8653 124.724 29.7856 124.686 29.7002 124.648C29.854 124.72 29.6603 124.623 29.6375 124.606C29.609 124.585 29.4268 124.412 29.5122 124.509C29.4211 124.408 29.3471 124.307 29.2731 124.198C29.1592 124.029 29.3129 124.307 29.2332 124.126C29.199 124.05 29.1592 123.97 29.125 123.894C29.0737 123.768 29.0225 123.637 28.9997 123.503C29.0225 123.621 28.9997 123.41 28.9997 123.406C28.9997 123.364 28.9997 123.317 28.9997 123.275C29.0054 123.195 29.0111 123.187 28.9997 123.25C29.0168 123.191 29.0395 123.132 29.068 123.073C28.9997 123.204 29.0908 123.061 29.1079 123.04C29.2047 122.913 28.9997 123.094 29.1535 123.002C29.2275 122.955 29.2218 122.955 29.1421 123.002C29.1819 122.981 29.2161 122.964 29.2617 122.947C29.4496 122.85 29.1136 123.014 29.3129 122.934C29.199 122.943 29.1876 122.943 29.2901 122.934C29.3357 122.934 29.3812 122.934 29.4268 122.943C29.871 122.976 30.2982 122.627 30.2811 122.311C30.2583 121.94 29.9052 121.717 29.4268 121.679L29.404 121.667Z" fill="#ED976B"/>
<path d="M32.1836 134.279C32.6221 134.657 33.1289 134.982 33.6814 135.268C34.0971 135.483 34.8546 135.281 34.9343 134.889C35.0994 134.093 35.2532 133.23 34.8545 132.455C34.4103 131.596 33.4308 131.045 32.1893 130.96C30.9477 130.876 29.877 131.365 29.2563 132.101C28.5501 132.939 28.6811 133.925 29.1936 134.796C29.672 135.609 30.4978 136.367 31.6596 136.67C32.736 136.952 33.9661 136.59 34.5072 135.853C34.9855 135.205 34.9912 134.413 34.7691 133.706C34.547 132.998 33.9433 132.165 32.9808 131.845C31.6596 131.407 30.2985 132.03 29.934 133.019C29.5524 134.06 30.3896 134.999 31.2837 135.744C31.7621 136.14 32.7929 135.837 32.7417 135.298C32.6619 134.455 32.6221 133.609 32.6221 132.763L31.335 133.31C31.409 133.348 31.4888 133.407 31.6083 133.499C31.6425 133.533 31.6482 133.533 31.6198 133.499L31.671 133.554C31.7222 133.609 31.7735 133.668 31.8191 133.727C31.9614 133.916 32.0355 134.089 32.1038 134.35C32.1266 134.43 32.138 134.527 32.1494 134.649C32.1608 134.818 32.1551 134.982 32.1494 135.15C32.1323 135.428 32.081 135.71 32.0298 135.984L33.4592 135.706C33.4137 135.677 33.3738 135.647 33.3283 135.618C33.1574 135.504 33.3396 135.647 33.2713 135.571C33.2371 135.538 33.2087 135.5 33.1802 135.462C33.1119 135.373 33.2144 135.58 33.146 135.407C33.1289 135.365 33.1118 135.323 33.1005 135.285C33.0891 135.247 33.0891 135.192 33.0948 135.264C33.0948 135.209 33.0948 135.159 33.0948 135.104C33.1061 134.994 33.0549 135.239 33.1119 135.049C33.2144 134.716 32.9752 134.367 32.5139 134.27C32.0811 134.182 31.5685 134.375 31.4603 134.712C31.2496 135.394 31.5172 136.136 32.2462 136.603C32.4797 136.755 32.7645 136.83 33.0777 136.767C33.334 136.717 33.6358 136.536 33.6757 136.325C33.8237 135.533 33.9661 134.742 33.7326 133.95C33.5219 133.247 32.998 132.632 32.195 132.215C31.6482 131.933 30.9136 132.312 30.9079 132.763C30.9079 133.609 30.9477 134.455 31.0274 135.298L32.4854 134.851C32.2006 134.611 31.9899 134.426 31.7792 134.148C31.6767 134.013 31.6482 133.963 31.5969 133.828C31.5799 133.782 31.5628 133.735 31.5514 133.685C31.5514 133.685 31.5286 133.567 31.54 133.63C31.5457 133.689 31.54 133.592 31.54 133.592C31.54 133.554 31.54 133.512 31.54 133.474C31.54 133.361 31.5115 133.516 31.5571 133.411C31.5799 133.356 31.597 133.297 31.6255 133.243C31.5799 133.344 31.6653 133.188 31.6881 133.158C31.7052 133.133 31.7279 133.108 31.7507 133.087C31.7052 133.137 31.7109 133.116 31.7621 133.083C31.802 133.053 31.9273 132.973 31.8134 133.036C31.8703 133.003 31.9387 132.973 32.007 132.952C31.8703 132.994 32.0355 132.952 32.0868 132.952C31.8988 132.973 32.2917 132.99 32.0981 132.956C32.1494 132.965 32.3145 133.007 32.1836 132.965C32.2519 132.986 32.3202 133.019 32.3829 133.049C32.269 132.998 32.417 133.07 32.4569 133.095C32.4968 133.125 32.531 133.154 32.5708 133.179C32.605 133.205 32.6505 133.247 32.5936 133.192C32.6961 133.289 32.7872 133.403 32.8613 133.512C32.9011 133.567 32.941 133.626 32.9752 133.685C32.9695 133.672 32.9353 133.613 32.9695 133.681C32.9923 133.731 33.015 133.777 33.0378 133.828C33.0834 133.937 33.1233 134.047 33.1517 134.156C33.1631 134.199 33.1916 134.325 33.1688 134.215C33.1802 134.291 33.1916 134.367 33.1973 134.443C33.203 134.556 33.1973 134.67 33.1916 134.784C33.1916 134.906 33.2201 134.721 33.1859 134.839C33.1688 134.902 33.1517 134.965 33.1289 135.024C33.1061 135.083 33.0834 135.142 33.0492 135.201C33.1062 135.1 33.0492 135.196 33.015 135.239C32.9808 135.281 32.9467 135.327 32.9011 135.369C32.998 135.272 32.8727 135.378 32.8271 135.411C32.7588 135.462 32.8556 135.399 32.867 135.394C32.8271 135.415 32.7872 135.432 32.7474 135.449C32.7018 135.466 32.5594 135.5 32.6676 135.479C32.6278 135.487 32.4227 135.517 32.5537 135.508C32.5138 135.508 32.4683 135.508 32.4284 135.508C32.4114 135.508 32.2519 135.495 32.3316 135.508C32.2405 135.495 32.1266 135.47 31.9956 135.415C31.8077 135.34 31.7166 135.285 31.6083 135.209C31.3008 135.003 31.13 134.834 30.9249 134.561C30.7199 134.287 30.5491 133.988 30.4807 133.668C30.458 133.563 30.4523 133.39 30.4693 133.255C30.4579 133.348 30.4864 133.192 30.4978 133.167C30.5206 133.091 30.5491 133.019 30.5889 132.948C30.5946 132.935 30.6288 132.876 30.5889 132.948C30.606 132.918 30.6288 132.889 30.6459 132.859C30.6857 132.8 30.7313 132.746 30.7826 132.691C30.7939 132.683 30.9021 132.577 30.8452 132.624C30.7996 132.666 30.8965 132.586 30.8908 132.59C30.9648 132.535 31.0332 132.48 31.1129 132.434C31.13 132.426 31.1926 132.388 31.1129 132.434C31.1471 132.417 31.1869 132.396 31.2211 132.379C31.261 132.363 31.4204 132.295 31.3919 132.308C31.3236 132.333 31.4489 132.291 31.4489 132.291C31.5001 132.278 31.5571 132.266 31.6141 132.253C31.6539 132.245 31.6995 132.24 31.7393 132.232C31.876 132.211 31.6255 132.236 31.7678 132.232C31.8703 132.228 31.9671 132.232 32.0639 132.228C32.0639 132.228 32.2063 132.232 32.1209 132.228C32.0412 132.224 32.2006 132.24 32.2177 132.24C32.3316 132.257 32.4398 132.283 32.5423 132.308C32.6335 132.333 32.548 132.308 32.5309 132.308C32.5822 132.325 32.6335 132.346 32.679 132.367C32.7132 132.384 32.7531 132.4 32.7872 132.417C32.9011 132.472 32.7132 132.367 32.8157 132.434C32.8897 132.485 32.9638 132.535 33.0264 132.59C32.9581 132.531 33.1175 132.695 33.1403 132.725C33.1631 132.754 33.1802 132.779 33.1973 132.809C33.2599 132.902 33.1631 132.733 33.2144 132.83C33.3852 133.167 33.3909 133.314 33.3852 133.655C33.3852 133.815 33.3681 133.971 33.351 134.127C33.3396 134.215 33.3283 134.308 33.3112 134.396C33.3283 134.312 33.2827 134.535 33.277 134.561L34.5299 134.182C34.1142 133.967 33.7212 133.689 33.3795 133.39C33.0834 133.129 32.4797 133.163 32.1722 133.39C31.8248 133.647 31.8703 134.022 32.1722 134.283L32.1836 134.279Z" fill="#ED976B"/>
<path d="M61.2048 147.164C59.707 147.059 58.1523 147.391 56.9563 148.065C56.6089 148.259 56.2957 148.469 56.1021 148.768C55.88 149.118 55.8857 149.488 55.9882 149.855C56.1248 150.347 56.3982 150.865 56.7456 151.295C57.1272 151.767 57.6739 152.158 58.3858 152.343C59.1546 152.546 59.9975 152.432 60.7094 152.171C61.4212 151.91 61.9566 151.463 62.3837 150.983C62.8108 150.503 63.1753 149.977 63.4373 149.446C63.6993 148.916 63.6993 148.276 63.2266 147.791C62.8166 147.375 62.1844 147.084 61.4896 147C59.9633 146.819 58.6535 147.568 57.9587 148.524C57.1955 149.577 57.0304 151.013 58.5509 151.746C59.2116 152.061 60.0943 152.082 60.7606 151.771C61.3871 151.476 61.7345 150.975 61.9623 150.47C62.0933 150.187 62.1844 149.893 62.2869 149.602C62.4008 149.282 62.5603 148.954 62.5774 148.621C62.5944 148.305 62.4691 147.985 62.1445 147.77C61.6548 147.442 60.9486 147.514 60.4759 147.817C59.9178 148.179 59.6729 148.743 59.4394 149.244C59.3881 149.35 59.3425 149.459 59.2856 149.564C59.2742 149.581 59.1774 149.75 59.2571 149.615C59.2286 149.665 59.1945 149.712 59.1603 149.758C59.1261 149.804 59.092 149.851 59.0521 149.893C59.0122 149.935 58.9211 150.006 59.0179 149.931C58.9724 149.968 58.9211 150.006 58.8699 150.04C58.7958 150.086 58.8015 150.086 58.8756 150.04C58.8357 150.061 58.7958 150.078 58.7503 150.095L60.0032 150.474C59.8779 150.107 59.8608 149.754 59.9291 149.362C59.9861 149.021 59.4963 148.73 59.0749 148.73C58.568 148.73 58.2776 149.021 58.2206 149.362C58.1409 149.846 58.1978 150.339 58.3573 150.811C58.494 151.211 59.1432 151.388 59.6102 151.19C60.51 150.811 60.8233 150.103 61.1479 149.421C61.1878 149.341 61.2276 149.261 61.2675 149.181C61.2732 149.164 61.3415 149.055 61.296 149.126C61.2504 149.198 61.3187 149.088 61.3301 149.076C61.3757 149.008 61.4213 148.945 61.4725 148.882C61.501 148.853 61.5238 148.819 61.5523 148.789C61.5864 148.752 61.5807 148.76 61.5295 148.811C61.6035 148.76 61.6206 148.743 61.5807 148.764C60.7777 148.684 61.0852 148.789 60.8517 148.541C60.8005 148.486 60.846 148.549 60.8517 148.592C60.8517 148.688 60.8802 148.495 60.8574 148.587C60.7948 148.815 60.7037 149.038 60.624 149.261C60.5499 149.463 60.4816 149.665 60.4075 149.867C60.3734 149.956 60.3392 150.044 60.2993 150.129C60.2822 150.166 60.2595 150.204 60.2424 150.246C60.1911 150.352 60.2538 150.234 60.2196 150.293C60.174 150.364 60.1228 150.436 60.0658 150.508C60.0373 150.541 60.0089 150.575 59.9804 150.604C59.9064 150.684 60.0601 150.545 59.969 150.609C59.9234 150.642 59.8836 150.676 59.8323 150.705C59.895 150.672 59.9121 150.684 59.8209 150.705C59.7982 150.705 59.6672 150.748 59.8153 150.714C59.7925 150.718 59.5875 150.76 59.6957 150.739C59.8096 150.718 59.5704 150.722 59.6843 150.739C59.7868 150.756 59.6273 150.731 59.6045 150.726C59.5647 150.718 59.4166 150.668 59.5476 150.714C59.4963 150.697 59.4508 150.676 59.4052 150.655C59.3824 150.642 59.2913 150.579 59.3824 150.642C59.3426 150.613 59.3027 150.583 59.2628 150.554C59.2457 150.541 59.1717 150.461 59.2401 150.537C59.2002 150.495 59.166 150.449 59.1376 150.402C59.0749 150.31 59.1717 150.491 59.1261 150.377C59.1034 150.318 59.0749 150.259 59.0635 150.196C59.0692 150.234 59.0635 150.023 59.0635 149.994C59.0635 149.859 59.1489 149.636 59.2344 149.459C59.3824 149.152 59.6501 148.84 59.9291 148.625C60.0089 148.562 60.0943 148.503 60.1854 148.448C60.0886 148.507 60.3392 148.373 60.362 148.364C60.4132 148.343 60.4645 148.322 60.51 148.305C60.5271 148.297 60.6581 148.259 60.5442 148.293C60.5955 148.276 60.6524 148.263 60.7094 148.255C60.7321 148.25 60.9884 148.217 60.7891 148.234C60.8916 148.225 60.9941 148.229 61.0967 148.229C61.1365 148.229 61.2561 148.25 61.0967 148.229C61.1479 148.238 61.1991 148.242 61.2447 148.255C61.3016 148.267 61.5465 148.339 61.3985 148.288C61.444 148.305 61.4896 148.322 61.5352 148.339C61.5522 148.347 61.7516 148.448 61.6092 148.364C61.6889 148.41 61.7573 148.461 61.8199 148.516C61.7117 148.423 61.8598 148.579 61.8882 148.613C61.8142 148.499 61.9053 148.672 61.9167 148.718C61.8996 148.617 61.9053 148.747 61.9053 148.756C61.8769 148.92 61.9395 148.726 61.8769 148.886C61.7231 149.248 61.4611 149.615 61.1992 149.964C60.9372 150.314 60.6923 150.596 60.2766 150.87C60.2025 150.92 60.1968 150.916 60.0772 150.975C59.9747 151.021 59.8665 151.068 59.7526 151.105C59.8494 151.076 59.7071 151.114 59.7014 151.118C59.6444 151.131 59.5875 151.143 59.5248 151.156C59.4622 151.169 59.4052 151.177 59.3483 151.185C59.4906 151.173 59.2457 151.185 59.2173 151.185C59.1603 151.185 59.0977 151.185 59.0407 151.177C59.1717 151.19 59.0179 151.169 59.0008 151.164C58.9439 151.152 58.8869 151.139 58.83 151.127C58.9553 151.16 58.83 151.127 58.8072 151.114C58.7788 151.101 58.5338 150.975 58.6477 151.047C58.5452 150.983 58.4484 150.912 58.363 150.836C58.4484 150.912 58.363 150.836 58.3459 150.819C58.3004 150.769 58.2548 150.718 58.2093 150.663C58.1466 150.583 58.084 150.499 58.027 150.415C58.0156 150.394 57.9359 150.272 57.9928 150.364C57.9644 150.314 57.9416 150.267 57.9131 150.217C57.8675 150.129 57.8277 150.04 57.7878 149.947C57.6967 149.741 57.5543 149.501 57.6112 149.316C57.5885 149.379 57.6568 149.282 57.6568 149.282C57.6967 149.244 57.7422 149.215 57.7935 149.181C57.8106 149.168 57.953 149.08 57.8789 149.122C58.8471 148.554 59.9861 148.356 61.1878 148.44C61.6491 148.474 62.042 148.128 62.042 147.808C62.042 147.442 61.6491 147.21 61.1878 147.177L61.2048 147.164Z" fill="#ED976B"/>
<path opacity="0.1" d="M126.999 86.758V98.9697C126.999 100.132 125.724 101.075 124.152 101.075H116.179L115.888 104.865L110.774 172.169C110.615 174.337 108.189 176.03 105.256 176.03H60.3672V84.6525H124.152C125.724 84.6525 126.999 85.5958 126.999 86.758Z" fill="black"/>
</svg>
