<svg width="136" height="252" viewBox="0 0 136 252" fill="none" xmlns="http://www.w3.org/2000/svg">
<rect x="55.2754" y="138.133" width="30.3085" height="113.867" fill="#93642D"/>
<rect x="55.3574" y="96.033" width="30.3085" height="113.867" fill="#714D22"/>
<path d="M136.002 142.083C136.002 171.874 105.698 196.023 68.3164 196.023C30.9347 196.023 0.630859 171.874 0.630859 142.083C0.630859 112.293 30.9347 52.1823 68.3163 52.1823C105.698 52.1823 136.002 112.293 136.002 142.083Z" fill="#66A865"/>
<path fill-rule="evenodd" clip-rule="evenodd" d="M133.95 129.438C127.552 153.929 100.315 172.33 67.6855 172.33C35.0556 172.33 7.81855 153.929 1.42128 129.438C0.489661 134.019 0 138.296 0 142.083C0 171.873 30.3038 196.023 67.6855 196.023C105.067 196.023 135.371 171.873 135.371 142.083C135.371 138.296 134.881 134.019 133.95 129.438Z" fill="#458244"/>
<path d="M124.924 73.0194C124.924 97.2158 99.8276 116.831 68.87 116.831C37.9125 116.831 12.8164 97.2158 12.8164 73.0194C12.8164 48.8229 37.9125 0 68.87 0C99.8276 0 124.924 48.8229 124.924 73.0194Z" fill="#83C082"/>
</svg>
