<svg width="280" height="290" viewBox="0 0 280 290" fill="none" xmlns="http://www.w3.org/2000/svg">
<rect x="19.9316" y="81.153" width="120.083" height="106.576" rx="53.2882" fill="#66A865"/>
<path d="M109.994 116.679C109.994 101.963 121.923 90.0345 136.638 90.0345H140.015C140.015 104.75 128.086 116.679 113.371 116.679H109.994Z" fill="#66A865"/>
<path d="M59.8073 106.968C46.1152 105.822 36.1924 93.8173 37.6439 80.1543L40.7267 80.4123C54.4187 81.5581 64.3416 93.563 62.89 107.226L59.8073 106.968Z" fill="#66A865"/>
<path d="M39.0118 152.009C27.4127 160.658 9.9464 159.152 -0.000267432 148.644L0.434315 148.32C12.0334 139.671 29.4997 141.178 39.4464 151.685L39.0118 152.009Z" fill="#66A865"/>
<path d="M150.385 160.496C138.786 169.145 121.319 167.639 111.373 157.131L111.807 156.807C123.406 148.158 140.873 149.665 150.819 160.172L150.385 160.496Z" fill="#66A865"/>
<rect width="110.075" height="116.885" rx="55.0373" transform="matrix(-0.542787 0.839871 -0.891172 -0.453665 212.066 150.635)" fill="#66A865"/>
<path d="M134.052 203.068C147.596 209.963 151.889 225.9 143.639 238.664L142.122 237.892C128.578 230.997 124.286 215.06 132.535 202.296L134.052 203.068Z" fill="#66A865"/>
<path d="M165.209 170.735C174.127 159.524 191.011 156.485 202.919 163.947L204.229 164.768C195.31 175.979 178.427 179.018 166.519 171.556L165.209 170.735Z" fill="#66A865"/>
<path d="M133.42 130.566C130.682 117.059 140.673 104.16 155.735 101.756L156.019 101.711C158.756 115.217 148.765 128.116 133.703 130.521L133.42 130.566Z" fill="#66A865"/>
<path d="M69.7127 212.086C66.9751 198.58 76.9661 185.681 92.0282 183.276L92.3116 183.231C95.0492 196.738 85.0583 209.637 69.9962 212.041L69.7127 212.086Z" fill="#66A865"/>
<rect width="110.075" height="116.885" rx="55.0373" transform="matrix(-0.542787 0.839871 -0.891172 -0.453665 269.107 112.667)" fill="#66A865"/>
<path d="M191.093 165.1C204.637 171.995 208.93 187.932 200.68 200.697L199.163 199.924C185.619 193.029 181.327 177.092 189.576 164.328L191.093 165.1Z" fill="#66A865"/>
<path d="M222.25 132.767C231.168 121.556 248.052 118.517 259.96 125.98L261.27 126.8C252.351 138.011 235.468 141.05 223.56 133.588L222.25 132.767Z" fill="#66A865"/>
<path d="M190.461 92.5986C187.723 79.0917 197.714 66.1929 212.776 63.7882L213.06 63.743C215.797 77.2498 205.806 90.1486 190.744 92.5533L190.461 92.5986Z" fill="#66A865"/>
<path d="M126.752 174.119C124.014 160.612 134.005 147.713 149.067 145.308L149.351 145.263C152.088 158.77 142.097 171.669 127.035 174.073L126.752 174.119Z" fill="#66A865"/>
<rect width="103.033" height="109.407" rx="51.5163" transform="matrix(-0.542787 0.839871 -0.891172 -0.453665 239.264 63.9974)" fill="#66A865"/>
<path d="M166.242 113.076C178.92 119.53 182.938 134.447 175.216 146.395L173.796 145.672C161.118 139.219 157.1 124.301 164.822 112.353L166.242 113.076Z" fill="#66A865"/>
<path d="M195.406 82.8114C203.754 72.3178 219.557 69.4733 230.704 76.4581L231.93 77.2264C223.582 87.72 207.778 90.5645 196.632 83.5797L195.406 82.8114Z" fill="#66A865"/>
<path d="M165.651 45.2128C163.089 32.5701 172.441 20.4964 186.539 18.2456L186.805 18.2032C189.367 30.846 180.015 42.9196 165.917 45.1704L165.651 45.2128Z" fill="#66A865"/>
<path d="M106.017 121.518C103.454 108.875 112.806 96.8014 126.905 94.5505L127.17 94.5082C129.732 107.151 120.38 119.225 106.282 121.475L106.017 121.518Z" fill="#66A865"/>
<path fill-rule="evenodd" clip-rule="evenodd" d="M21.8381 120.961C20.667 125.352 20.0428 129.967 20.0428 134.728C20.0428 137.579 20.2667 140.378 20.6979 143.108C13.6299 142.492 6.35267 144.277 0.545911 148.606L0.111328 148.93C6.5477 155.73 16.1327 158.76 25.2392 157.709C33.7239 175.432 51.7176 187.735 72.6135 188.011C73.2506 189.76 73.9918 191.474 74.8349 193.145C70.4287 198.456 68.3967 205.332 69.8238 212.373L70.1073 212.327C75.617 211.448 80.4482 209.164 84.226 205.96C87.9283 209.592 92.305 212.761 97.3146 215.311L103.384 218.401C111.723 222.646 120.843 224.683 129.955 224.723C132.034 230.277 136.223 235.118 142.234 238.178L143.751 238.951C147.183 233.64 148.444 227.781 147.772 222.252C161.675 218.277 174.24 209.624 182.305 197.145C184.338 193.999 185.991 190.757 187.274 187.464C189.436 192.72 193.521 197.281 199.274 200.21L200.792 200.983C204.224 195.673 205.485 189.813 204.813 184.284C218.716 180.309 231.281 171.656 239.346 159.177C244.015 151.954 246.675 144.222 247.475 136.535C252.845 134.831 257.768 131.63 261.382 127.087L260.072 126.266C256.054 123.748 251.469 122.425 246.814 122.209C245.986 118.067 244.606 114.048 242.701 110.249C241.314 114.79 239.247 119.268 236.47 123.565C224.412 142.222 202.295 152.327 180.689 151.033C180.509 151.322 180.327 151.61 180.141 151.898C163.642 177.427 128.308 186.943 101.22 173.153L95.1503 170.064C86.6139 165.718 79.9151 159.577 75.2597 152.404H70.457C48.8113 152.404 30.1799 139.498 21.8381 120.961Z" fill="#458244"/>
<path d="M131.735 175.061H148.372L161.931 290H117.963L131.735 175.061Z" fill="#93642D"/>
<path d="M131.616 175.061H148.49L155.635 236.925H124.43L131.616 175.061Z" fill="#714D22"/>
<path fill-rule="evenodd" clip-rule="evenodd" d="M127.063 224.039C101.045 207.413 97.8821 182.432 99.7023 171.527L111.457 173.073C110.109 181.152 112.492 201.732 134.006 215.48L127.063 224.039Z" fill="#714D22"/>
<path fill-rule="evenodd" clip-rule="evenodd" d="M146.715 207.164C172.733 190.538 175.895 165.557 174.075 154.652L162.32 156.198C163.669 164.277 161.286 184.857 139.771 198.605L146.715 207.164Z" fill="#714D22"/>
<rect width="78.8752" height="83.7554" rx="39.4376" transform="matrix(-0.542787 0.839871 -0.891172 -0.453665 191.842 134.765)" fill="#66A865"/>
<path d="M135.939 172.337C145.644 177.277 148.72 188.697 142.809 197.844L141.721 197.29C132.016 192.35 128.94 180.93 134.852 171.783L135.939 172.337Z" fill="#66A865"/>
<path d="M158.264 149.168C164.655 141.135 176.753 138.957 185.286 144.304L186.225 144.892C179.834 152.926 167.736 155.103 159.203 149.756L158.264 149.168Z" fill="#66A865"/>
<path d="M135.487 120.385C133.526 110.706 140.685 101.463 151.478 99.7403L151.681 99.7078C153.643 109.386 146.483 118.629 135.691 120.352L135.487 120.385Z" fill="#66A865"/>
<path d="M89.8351 178.799C87.8734 169.12 95.0326 159.878 105.825 158.155L106.029 158.122C107.99 167.801 100.831 177.043 90.0382 178.767L89.8351 178.799Z" fill="#66A865"/>
<rect width="112.142" height="100.049" rx="50.0245" transform="matrix(0.99139 0.13094 -0.165368 0.986232 50.9199 12.6022)" fill="#83C082"/>
<path d="M128.788 56.5055C131.072 42.8818 144.026 33.304 157.721 35.1128L160.718 35.5086C158.434 49.1323 145.48 58.7102 131.785 56.9014L128.788 56.5055Z" fill="#83C082"/>
<path d="M83.9481 41.4039C71.3853 38.6548 64.0101 26.3155 67.475 13.8434L70.1729 14.4338C82.7357 17.1829 90.1109 29.5222 86.646 41.9943L83.9481 41.4039Z" fill="#83C082"/>
<path d="M57.6058 80.5254C45.5136 87.1203 29.568 83.5944 21.9902 72.65L22.4234 72.4137C34.5156 65.8188 50.4612 69.3448 58.039 80.2892L57.6058 80.5254Z" fill="#83C082"/>
<path d="M159.401 102.002C147.309 108.597 131.363 105.071 123.785 94.1265L124.218 93.8903C136.311 87.2954 152.256 90.8213 159.834 101.766L159.401 102.002Z" fill="#83C082"/>
<path d="M97.1672 70.131C97.284 74.7784 94.7501 81.726 88.2838 84.5596C86.6586 85.2717 85.7554 84.5807 83.7953 84.6685C82.044 84.747 81.503 85.3213 79.835 84.766C72.9085 82.4601 69.833 75.7057 69.7079 70.7276C69.5443 64.2194 75.2698 60.7812 83.3018 65.0282C90.5899 60.6941 97.0037 63.6228 97.1672 70.131Z" fill="#FF542F"/>
<path fill-rule="evenodd" clip-rule="evenodd" d="M83.2679 63.7524C79.2946 61.8098 75.6505 61.5564 72.8932 62.8605C69.9627 64.2466 68.4315 67.2007 68.5208 70.7534C68.653 76.0136 71.8909 83.2942 79.4348 85.8056C80.4772 86.1526 81.234 86.1554 81.9722 86.0452C82.2257 86.0073 82.4327 85.9675 82.6274 85.93C83.0006 85.8581 83.3286 85.7949 83.8526 85.7714C84.4754 85.7435 84.9238 85.8032 85.4336 85.8711C85.6198 85.8959 85.8142 85.9218 86.0283 85.9449C86.8372 86.0323 87.7117 86.0309 88.7901 85.5584C95.8281 82.4743 98.4779 75.0155 98.3545 70.1053C98.264 66.5029 96.4133 63.7025 93.3717 62.4979C90.5258 61.3708 86.9246 61.754 83.2679 63.7524ZM88.2838 84.5596C94.7502 81.726 97.2841 74.7784 97.1673 70.1311C97.0038 63.6228 90.59 60.6941 83.3019 65.0282C75.2699 60.7812 69.5444 64.2194 69.708 70.7276C69.833 75.7057 72.9086 82.4601 79.8351 84.7661C80.9181 85.1266 81.526 85.0109 82.2985 84.864C82.7158 84.7846 83.1812 84.6961 83.7954 84.6685C84.5408 84.6351 85.1333 84.7143 85.6708 84.7862C86.5468 84.9033 87.2767 85.0009 88.2838 84.5596Z" fill="#734125"/>
<path fill-rule="evenodd" clip-rule="evenodd" d="M85.643 81.6126C92.1094 78.7791 94.1151 71.8315 93.9983 67.1841C93.9641 65.8232 93.6566 64.6187 93.1249 63.6045C95.5355 64.6553 97.0882 66.9713 97.1676 70.131C97.2843 74.7784 94.7504 81.726 88.2841 84.5595C87.2769 85.0008 86.547 84.9033 85.671 84.7861C85.1335 84.7143 84.541 84.6351 83.7957 84.6685C83.1814 84.696 82.716 84.7845 82.2987 84.8639C81.5262 85.0109 80.9183 85.1265 79.8353 84.766C77.3019 83.9226 75.2837 82.4841 73.7365 80.755C74.4708 81.1714 75.2699 81.5302 76.1379 81.8191C77.2549 82.191 78.1033 82.0563 79.068 81.9031C79.5438 81.8276 80.0479 81.7476 80.6264 81.7216C81.3527 81.6891 82.0065 81.7635 82.6244 81.8338C83.6739 81.9532 84.6201 82.0609 85.643 81.6126Z" fill="#ED4A27"/>
<path d="M93.2259 68.9093C93.1453 69.4466 92.6115 69.8214 92.0337 69.7464C91.4558 69.6715 91.0527 69.1751 91.1333 68.6378C91.2139 68.1005 91.7477 67.7257 92.3256 67.8007C92.9034 67.8756 93.3065 68.372 93.2259 68.9093Z" fill="#C53622"/>
<path d="M96.0853 71.7531C96.0047 72.2904 95.4709 72.6652 94.893 72.5903C94.3152 72.5153 93.9121 72.019 93.9927 71.4817C94.0733 70.9444 94.6071 70.5696 95.185 70.6446C95.7628 70.7195 96.1659 71.2158 96.0853 71.7531Z" fill="#C53622"/>
<path d="M96.0244 68.0325C95.964 68.4355 95.5636 68.7166 95.1302 68.6604C94.6968 68.6042 94.3945 68.2319 94.455 67.829C94.5154 67.426 94.9158 67.1449 95.3492 67.2011C95.7826 67.2573 96.0849 67.6296 96.0244 68.0325Z" fill="#C53622"/>
<path d="M95.0462 75.1696C94.9656 75.7069 94.4318 76.0817 93.854 76.0068C93.2761 75.9318 92.873 75.4355 92.9537 74.8982C93.0343 74.3609 93.568 73.9861 94.1459 74.0611C94.7237 74.136 95.1268 74.6324 95.0462 75.1696Z" fill="#C53622"/>
<path d="M92.1868 72.3258C92.1062 72.8631 91.5725 73.2379 90.9946 73.1629C90.4168 73.088 90.0137 72.5916 90.0943 72.0543C90.1749 71.517 90.7087 71.1422 91.2865 71.2172C91.8644 71.2922 92.2675 71.7885 92.1868 72.3258Z" fill="#C53622"/>
<path d="M93.3021 78.8936C93.2215 79.4309 92.6877 79.8057 92.1098 79.7308C91.532 79.6558 91.1289 79.1595 91.2095 78.6222C91.2901 78.0849 91.8239 77.7101 92.4018 77.7851C92.9796 77.86 93.3827 78.3564 93.3021 78.8936Z" fill="#C53622"/>
<path d="M91.181 75.9159C91.1004 76.4532 90.5666 76.828 89.9887 76.7531C89.4109 76.6781 89.0078 76.1818 89.0884 75.6445C89.169 75.1072 89.7028 74.7324 90.2807 74.8073C90.8585 74.8823 91.2616 75.3786 91.181 75.9159Z" fill="#C53622"/>
<path d="M91.208 81.0738C91.1475 81.4768 90.7472 81.7579 90.3138 81.7017C89.8804 81.6455 89.5781 81.2732 89.6386 80.8703C89.699 80.4673 90.0994 80.1862 90.5328 80.2424C90.9661 80.2986 91.2685 80.6709 91.208 81.0738Z" fill="#C53622"/>
<path d="M89.228 54.9734C89.228 54.9734 90.4016 59.473 89.1658 61.9227C87.6764 64.8753 83.1784 65.0617 83.1784 65.0617C83.1784 65.0617 81.8165 61.6102 83.6162 58.609C85.0006 56.3003 89.228 54.9734 89.228 54.9734Z" fill="#7CD623"/>
<path fill-rule="evenodd" clip-rule="evenodd" d="M90.3823 54.7132L89.2283 54.9734L88.8484 53.9272C89.164 53.8282 89.5097 53.8569 89.8014 54.0064C90.093 54.1558 90.3038 54.4122 90.3823 54.7132ZM88.1121 55.39C88.7729 55.1163 89.2283 54.9734 89.2283 54.9734C89.2283 54.9734 89.3404 55.4032 89.4588 56.0695C89.7236 57.559 90.0199 60.2301 89.1661 61.9228C87.6766 64.8754 83.1786 65.0618 83.1786 65.0618C83.1786 65.0618 81.8167 61.6102 83.6164 58.609C84.5465 57.058 86.7596 55.9502 88.1121 55.39ZM83.1786 65.0618C82.0638 65.4421 82.0636 65.4417 82.0635 65.4413L82.0624 65.4386L82.0605 65.4338L82.0554 65.4203C82.0513 65.4097 82.0461 65.3957 82.0397 65.3785C82.0271 65.3441 82.0102 65.2967 81.9903 65.2373C81.9503 65.1185 81.8977 64.9513 81.8418 64.7432C81.7304 64.3285 81.6038 63.7448 81.5396 63.0563C81.4123 61.6919 81.5228 59.8329 82.5793 58.0713C83.4446 56.6283 85.1064 55.5949 86.3753 54.9549C87.0357 54.6218 87.6468 54.3675 88.0929 54.1962C88.3166 54.1103 88.5007 54.0446 88.631 53.9997C88.6962 53.9772 88.7481 53.9599 88.7849 53.9478C88.8033 53.9417 88.8179 53.937 88.8286 53.9336L88.8416 53.9294L88.8473 53.9276L88.8484 53.9272C88.8487 53.9272 88.8484 53.9272 89.2283 54.9734C90.3823 54.7132 90.3822 54.7129 90.3823 54.7132L90.3829 54.7155L90.384 54.7195L90.3873 54.7324L90.3985 54.7772C90.4079 54.8153 90.421 54.8696 90.437 54.9385C90.469 55.0763 90.5125 55.273 90.5604 55.5156C90.6558 55.9996 90.7698 56.6729 90.8433 57.4302C90.9843 58.8825 91.0039 60.8798 90.2412 62.3916C89.2979 64.2615 87.441 65.1866 85.9971 65.6445C85.2596 65.8785 84.5798 66.0071 84.0851 66.0779C83.8365 66.1134 83.6312 66.1348 83.4845 66.1474C83.4111 66.1538 83.352 66.158 83.3093 66.1606C83.2879 66.162 83.2706 66.1629 83.2575 66.1636L83.2412 66.1644L83.2355 66.1647L83.2333 66.1648L83.2323 66.1648C83.2319 66.1648 83.2315 66.1649 83.1786 65.0618ZM82.0638 65.4421L83.1786 65.0618L83.2315 66.1649C82.7144 66.1863 82.242 65.8939 82.0638 65.4421Z" fill="#156319"/>
<path d="M88.3716 61.9394C89.4807 60.0899 88.828 56.3283 88.828 56.3283C85.5313 59.5129 84.7014 63.0513 84.5131 64.329C84.5131 64.329 87.2625 63.789 88.3716 61.9394Z" fill="#6FC21C"/>
<path d="M76.9835 60.1722C78.1251 60.4258 81.9099 63.4203 82.971 65.2849C83.0596 65.4404 83.5162 65.197 83.441 65.0607C82.836 63.2848 80.906 59.0928 79.354 57.8294C77.3096 57.7894 76.9192 59.7727 76.9835 60.1722Z" fill="#943D31"/>
<path fill-rule="evenodd" clip-rule="evenodd" d="M76.7067 61.2461C76.2355 61.1414 75.88 60.781 75.8083 60.3355C75.7604 60.0381 75.8074 59.6839 75.881 59.3853C75.9626 59.054 76.1095 58.6587 76.356 58.2725C76.8722 57.4636 77.8426 56.6953 79.3782 56.7254C79.6573 56.7309 79.9254 56.8276 80.1354 56.9986C80.6514 57.4186 81.1352 58.0228 81.5639 58.6506C82.0032 59.2939 82.43 60.03 82.8183 60.7671C83.5784 62.2101 84.2259 63.7244 84.5548 64.6761C84.7987 65.2576 84.4497 65.7337 84.3425 65.8598C84.1824 66.0481 83.9885 66.1742 83.8331 66.2526C83.6807 66.3295 83.4467 66.4206 83.1642 66.4367C82.8933 66.4521 82.2572 66.3926 81.9206 65.8012C81.4943 65.0521 80.4183 63.9457 79.2161 62.9483C78.6325 62.4642 78.0562 62.0364 77.5706 61.721C77.3274 61.563 77.1189 61.441 76.9522 61.3558C76.8015 61.2788 76.7246 61.2524 76.7087 61.247C76.7053 61.2458 76.7047 61.2456 76.7067 61.2461ZM83.4402 65.0607C83.4396 65.0587 83.4389 65.0566 83.4382 65.0546C83.3577 64.8189 83.2541 64.5411 83.1313 64.2334C82.9753 63.8427 82.7884 63.4039 82.5785 62.9424C81.706 61.0235 80.4373 58.7119 79.3532 57.8293C77.3088 57.7893 76.9184 59.7727 76.9827 60.1721C77.8057 60.355 80.0026 61.9624 81.5622 63.544C81.8922 63.8787 82.1938 64.2122 82.4477 64.5308C82.6366 64.7679 82.7992 64.9968 82.9276 65.2117C82.9423 65.2362 82.9565 65.2606 82.9702 65.2848C83.0588 65.4404 83.5154 65.1969 83.4402 65.0607ZM82.2978 65.3638C82.3177 65.4287 82.3457 65.4958 82.3836 65.5646C82.3534 65.5098 82.3282 65.4528 82.3082 65.3941C82.3048 65.3841 82.3013 65.374 82.2978 65.3638Z" fill="#633526"/>
<path d="M79.7494 57.8662C80.1224 58.2362 79.8625 59.0261 79.169 59.6306C78.4755 60.2351 77.6109 60.4253 77.2379 60.0553C76.8649 59.6853 77.1247 58.8953 77.8183 58.2908C78.5118 57.6863 79.3764 57.4962 79.7494 57.8662Z" fill="#C26649"/>
<path d="M77.6689 65.0641C79.2393 65.7828 79.5726 68.141 78.4132 70.3313C77.2539 72.5217 75.0409 73.7147 73.4705 72.996C71.9 72.2774 71.5668 69.9191 72.7262 67.7288C73.8855 65.5385 76.0985 64.3454 77.6689 65.0641Z" fill="#FF896F"/>
<path fill-rule="evenodd" clip-rule="evenodd" d="M75.8509 66.8222C76.3545 67.2128 76.4222 67.9091 76.0021 68.3773C75.7286 68.6823 75.5496 69.0041 75.4499 69.3487C75.2795 69.9375 74.628 70.2865 73.9947 70.1281C73.3613 69.9696 72.986 69.3638 73.1564 68.775C73.3496 68.1072 73.6953 67.5012 74.1783 66.9628C74.5984 66.4945 75.3472 66.4316 75.8509 66.8222Z" fill="white"/>
<path d="M183.167 70.131C183.284 74.7784 180.75 81.726 174.284 84.5596C172.659 85.2717 171.755 84.5807 169.795 84.6685C168.044 84.747 167.503 85.3213 165.835 84.766C158.908 82.4601 155.833 75.7057 155.708 70.7276C155.544 64.2194 161.27 60.7812 169.302 65.0282C176.59 60.6941 183.004 63.6228 183.167 70.131Z" fill="#FF542F"/>
<path fill-rule="evenodd" clip-rule="evenodd" d="M169.268 63.7524C165.295 61.8098 161.65 61.5564 158.893 62.8605C155.963 64.2466 154.432 67.2007 154.521 70.7534C154.653 76.0136 157.891 83.2942 165.435 85.8056C166.477 86.1526 167.234 86.1554 167.972 86.0452C168.226 86.0073 168.433 85.9675 168.627 85.93C169.001 85.8581 169.329 85.7949 169.853 85.7714C170.475 85.7435 170.924 85.8032 171.434 85.8711C171.62 85.8959 171.814 85.9218 172.028 85.9449C172.837 86.0323 173.712 86.0309 174.79 85.5584C181.828 82.4743 184.478 75.0155 184.355 70.1053C184.264 66.5029 182.413 63.7025 179.372 62.4979C176.526 61.3708 172.925 61.754 169.268 63.7524ZM174.284 84.5596C180.75 81.726 183.284 74.7784 183.167 70.1311C183.004 63.6228 176.59 60.6941 169.302 65.0282C161.27 60.7812 155.544 64.2194 155.708 70.7276C155.833 75.7057 158.909 82.4601 165.835 84.7661C166.918 85.1266 167.526 85.0109 168.298 84.864C168.716 84.7846 169.181 84.6961 169.795 84.6685C170.541 84.6351 171.133 84.7143 171.671 84.7862C172.547 84.9033 173.277 85.0009 174.284 84.5596Z" fill="#734125"/>
<path fill-rule="evenodd" clip-rule="evenodd" d="M171.643 81.6126C178.109 78.7791 180.115 71.8315 179.998 67.1841C179.964 65.8232 179.657 64.6187 179.125 63.6045C181.536 64.6553 183.088 66.9713 183.168 70.131C183.284 74.7784 180.75 81.726 174.284 84.5595C173.277 85.0008 172.547 84.9033 171.671 84.7861C171.134 84.7143 170.541 84.6351 169.796 84.6685C169.181 84.696 168.716 84.7845 168.299 84.8639C167.526 85.0109 166.918 85.1265 165.835 84.766C163.302 83.9226 161.284 82.4841 159.737 80.755C160.471 81.1714 161.27 81.5302 162.138 81.8191C163.255 82.191 164.103 82.0563 165.068 81.9031C165.544 81.8276 166.048 81.7476 166.626 81.7216C167.353 81.6891 168.006 81.7635 168.624 81.8338C169.674 81.9532 170.62 82.0609 171.643 81.6126Z" fill="#ED4A27"/>
<path d="M179.226 68.9093C179.145 69.4466 178.612 69.8214 178.034 69.7464C177.456 69.6715 177.053 69.1751 177.133 68.6378C177.214 68.1005 177.748 67.7257 178.326 67.8007C178.903 67.8756 179.307 68.372 179.226 68.9093Z" fill="#C53622"/>
<path d="M182.085 71.7531C182.005 72.2904 181.471 72.6652 180.893 72.5903C180.315 72.5153 179.912 72.019 179.993 71.4817C180.073 70.9444 180.607 70.5696 181.185 70.6446C181.763 70.7195 182.166 71.2158 182.085 71.7531Z" fill="#C53622"/>
<path d="M182.024 68.0325C181.964 68.4355 181.564 68.7166 181.13 68.6604C180.697 68.6042 180.395 68.2319 180.455 67.829C180.515 67.426 180.916 67.1449 181.349 67.2011C181.783 67.2573 182.085 67.6296 182.024 68.0325Z" fill="#C53622"/>
<path d="M181.046 75.1696C180.966 75.7069 180.432 76.0817 179.854 76.0068C179.276 75.9318 178.873 75.4355 178.954 74.8982C179.034 74.3609 179.568 73.9861 180.146 74.0611C180.724 74.136 181.127 74.6324 181.046 75.1696Z" fill="#C53622"/>
<path d="M178.187 72.3258C178.106 72.8631 177.572 73.2379 176.995 73.1629C176.417 73.088 176.014 72.5916 176.094 72.0543C176.175 71.517 176.709 71.1422 177.287 71.2172C177.864 71.2922 178.267 71.7885 178.187 72.3258Z" fill="#C53622"/>
<path d="M179.302 78.8936C179.221 79.4309 178.688 79.8057 178.11 79.7308C177.532 79.6558 177.129 79.1595 177.21 78.6222C177.29 78.0849 177.824 77.7101 178.402 77.7851C178.98 77.86 179.383 78.3564 179.302 78.8936Z" fill="#C53622"/>
<path d="M177.181 75.9159C177.1 76.4532 176.567 76.828 175.989 76.7531C175.411 76.6781 175.008 76.1818 175.088 75.6445C175.169 75.1072 175.703 74.7324 176.281 74.8073C176.859 74.8823 177.262 75.3786 177.181 75.9159Z" fill="#C53622"/>
<path d="M177.208 81.0738C177.148 81.4768 176.747 81.7579 176.314 81.7017C175.88 81.6455 175.578 81.2732 175.639 80.8703C175.699 80.4673 176.099 80.1862 176.533 80.2424C176.966 80.2986 177.268 80.6709 177.208 81.0738Z" fill="#C53622"/>
<path d="M175.228 54.9734C175.228 54.9734 176.402 59.473 175.166 61.9227C173.676 64.8753 169.178 65.0617 169.178 65.0617C169.178 65.0617 167.816 61.6102 169.616 58.609C171.001 56.3003 175.228 54.9734 175.228 54.9734Z" fill="#7CD623"/>
<path fill-rule="evenodd" clip-rule="evenodd" d="M176.382 54.7132L175.228 54.9734L174.848 53.9272C175.164 53.8282 175.51 53.8569 175.801 54.0064C176.093 54.1558 176.304 54.4122 176.382 54.7132ZM174.112 55.39C174.773 55.1163 175.228 54.9734 175.228 54.9734C175.228 54.9734 175.34 55.4032 175.459 56.0695C175.724 57.559 176.02 60.2301 175.166 61.9228C173.677 64.8754 169.179 65.0618 169.179 65.0618C169.179 65.0618 167.817 61.6102 169.616 58.609C170.546 57.058 172.76 55.9502 174.112 55.39ZM169.179 65.0618C168.064 65.4421 168.064 65.4417 168.063 65.4413L168.062 65.4386L168.061 65.4338L168.055 65.4203C168.051 65.4097 168.046 65.3957 168.04 65.3785C168.027 65.3441 168.01 65.2967 167.99 65.2373C167.95 65.1185 167.898 64.9513 167.842 64.7432C167.73 64.3285 167.604 63.7448 167.54 63.0563C167.412 61.6919 167.523 59.8329 168.579 58.0713C169.445 56.6283 171.106 55.5949 172.375 54.9549C173.036 54.6218 173.647 54.3675 174.093 54.1962C174.317 54.1103 174.501 54.0446 174.631 53.9997C174.696 53.9772 174.748 53.9599 174.785 53.9478C174.803 53.9417 174.818 53.937 174.829 53.9336L174.842 53.9294L174.847 53.9276L174.848 53.9272C174.849 53.9272 174.848 53.9272 175.228 54.9734C176.382 54.7132 176.382 54.7129 176.382 54.7132L176.383 54.7155L176.384 54.7195L176.387 54.7324L176.398 54.7772C176.408 54.8153 176.421 54.8696 176.437 54.9385C176.469 55.0763 176.513 55.273 176.56 55.5156C176.656 55.9996 176.77 56.6729 176.843 57.4302C176.984 58.8825 177.004 60.8798 176.241 62.3916C175.298 64.2615 173.441 65.1866 171.997 65.6445C171.26 65.8785 170.58 66.0071 170.085 66.0779C169.837 66.1134 169.631 66.1348 169.485 66.1474C169.411 66.1538 169.352 66.158 169.309 66.1606C169.288 66.162 169.271 66.1629 169.258 66.1636L169.241 66.1644L169.236 66.1647L169.233 66.1648L169.232 66.1648C169.232 66.1648 169.231 66.1649 169.179 65.0618ZM168.064 65.4421L169.179 65.0618L169.231 66.1649C168.714 66.1863 168.242 65.8939 168.064 65.4421Z" fill="#156319"/>
<path d="M174.372 61.9394C175.481 60.0899 174.828 56.3283 174.828 56.3283C171.531 59.5129 170.701 63.0513 170.513 64.329C170.513 64.329 173.262 63.789 174.372 61.9394Z" fill="#6FC21C"/>
<path d="M162.983 60.1722C164.125 60.4258 167.91 63.4203 168.971 65.2849C169.06 65.4404 169.516 65.197 169.441 65.0607C168.836 63.2848 166.906 59.0928 165.354 57.8294C163.31 57.7894 162.919 59.7727 162.983 60.1722Z" fill="#943D31"/>
<path fill-rule="evenodd" clip-rule="evenodd" d="M162.707 61.2461C162.236 61.1414 161.88 60.781 161.808 60.3355C161.76 60.0381 161.807 59.6839 161.881 59.3853C161.963 59.054 162.109 58.6587 162.356 58.2725C162.872 57.4636 163.843 56.6953 165.378 56.7254C165.657 56.7309 165.925 56.8276 166.135 56.9986C166.651 57.4186 167.135 58.0228 167.564 58.6506C168.003 59.2939 168.43 60.03 168.818 60.7671C169.578 62.2101 170.226 63.7244 170.555 64.6761C170.799 65.2576 170.45 65.7337 170.343 65.8598C170.182 66.0481 169.989 66.1742 169.833 66.2526C169.681 66.3295 169.447 66.4206 169.164 66.4367C168.893 66.4521 168.257 66.3926 167.921 65.8012C167.494 65.0521 166.418 63.9457 165.216 62.9483C164.633 62.4642 164.056 62.0364 163.571 61.721C163.327 61.563 163.119 61.441 162.952 61.3558C162.802 61.2788 162.725 61.2524 162.709 61.247C162.705 61.2458 162.705 61.2456 162.707 61.2461ZM169.44 65.0607C169.44 65.0587 169.439 65.0566 169.438 65.0546C169.358 64.8189 169.254 64.5411 169.131 64.2334C168.975 63.8427 168.788 63.4039 168.579 62.9424C167.706 61.0235 166.437 58.7119 165.353 57.8293C163.309 57.7893 162.918 59.7727 162.983 60.1721C163.806 60.355 166.003 61.9624 167.562 63.544C167.892 63.8787 168.194 64.2122 168.448 64.5308C168.637 64.7679 168.799 64.9968 168.928 65.2117C168.942 65.2362 168.956 65.2606 168.97 65.2848C169.059 65.4404 169.515 65.1969 169.44 65.0607ZM168.298 65.3638C168.318 65.4287 168.346 65.4958 168.384 65.5646C168.353 65.5098 168.328 65.4528 168.308 65.3941C168.305 65.3841 168.301 65.374 168.298 65.3638Z" fill="#633526"/>
<path d="M165.749 57.8662C166.122 58.2362 165.863 59.0261 165.169 59.6306C164.475 60.2351 163.611 60.4253 163.238 60.0553C162.865 59.6853 163.125 58.8953 163.818 58.2908C164.512 57.6863 165.376 57.4962 165.749 57.8662Z" fill="#C26649"/>
<path d="M163.669 65.0641C165.239 65.7828 165.573 68.141 164.413 70.3313C163.254 72.5217 161.041 73.7147 159.47 72.996C157.9 72.2774 157.567 69.9191 158.726 67.7288C159.886 65.5385 162.098 64.3454 163.669 65.0641Z" fill="#FF896F"/>
<path fill-rule="evenodd" clip-rule="evenodd" d="M161.851 66.8222C162.355 67.2128 162.422 67.9091 162.002 68.3773C161.729 68.6823 161.55 69.0041 161.45 69.3487C161.28 69.9375 160.628 70.2865 159.995 70.1281C159.361 69.9696 158.986 69.3638 159.156 68.775C159.35 68.1072 159.695 67.5012 160.178 66.9628C160.598 66.4945 161.347 66.4316 161.851 66.8222Z" fill="white"/>
<path d="M70.1672 144.131C70.284 148.778 67.7501 155.726 61.2838 158.56C59.6586 159.272 58.7554 158.581 56.7953 158.669C55.044 158.747 54.503 159.321 52.835 158.766C45.9085 156.46 42.833 149.706 42.7079 144.728C42.5443 138.219 48.2698 134.781 56.3018 139.028C63.5899 134.694 70.0037 137.623 70.1672 144.131Z" fill="#FF542F"/>
<path fill-rule="evenodd" clip-rule="evenodd" d="M56.2679 137.752C52.2946 135.81 48.6505 135.556 45.8932 136.861C42.9627 138.247 41.4315 141.201 41.5208 144.753C41.653 150.014 44.8909 157.294 52.4348 159.806C53.4772 160.153 54.234 160.155 54.9722 160.045C55.2257 160.007 55.4327 159.967 55.6274 159.93C56.0006 159.858 56.3286 159.795 56.8526 159.771C57.4754 159.744 57.9238 159.803 58.4336 159.871C58.6198 159.896 58.8142 159.922 59.0283 159.945C59.8372 160.032 60.7117 160.031 61.7901 159.558C68.8281 156.474 71.4779 149.015 71.3545 144.105C71.264 140.503 69.4133 137.703 66.3717 136.498C63.5258 135.371 59.9246 135.754 56.2679 137.752ZM61.2838 158.56C67.7502 155.726 70.2841 148.778 70.1673 144.131C70.0038 137.623 63.59 134.694 56.3019 139.028C48.2699 134.781 42.5444 138.219 42.708 144.728C42.833 149.706 45.9086 156.46 52.8351 158.766C53.9181 159.127 54.526 159.011 55.2985 158.864C55.7158 158.785 56.1812 158.696 56.7954 158.669C57.5408 158.635 58.1333 158.714 58.6708 158.786C59.5468 158.903 60.2767 159.001 61.2838 158.56Z" fill="#734125"/>
<path fill-rule="evenodd" clip-rule="evenodd" d="M58.643 155.613C65.1094 152.779 67.1151 145.832 66.9983 141.184C66.9641 139.823 66.6566 138.619 66.1249 137.604C68.5355 138.655 70.0882 140.971 70.1676 144.131C70.2843 148.778 67.7504 155.726 61.2841 158.559C60.2769 159.001 59.547 158.903 58.671 158.786C58.1335 158.714 57.541 158.635 56.7957 158.668C56.1814 158.696 55.716 158.785 55.2987 158.864C54.5262 159.011 53.9183 159.127 52.8353 158.766C50.3019 157.923 48.2837 156.484 46.7365 154.755C47.4708 155.171 48.2699 155.53 49.1379 155.819C50.2549 156.191 51.1033 156.056 52.068 155.903C52.5438 155.828 53.0479 155.748 53.6264 155.722C54.3527 155.689 55.0065 155.763 55.6244 155.834C56.6739 155.953 57.6201 156.061 58.643 155.613Z" fill="#ED4A27"/>
<path d="M66.2259 142.909C66.1453 143.447 65.6115 143.821 65.0337 143.746C64.4558 143.671 64.0527 143.175 64.1333 142.638C64.2139 142.101 64.7477 141.726 65.3256 141.801C65.9034 141.876 66.3065 142.372 66.2259 142.909Z" fill="#C53622"/>
<path d="M69.0853 145.753C69.0047 146.29 68.4709 146.665 67.893 146.59C67.3152 146.515 66.9121 146.019 66.9927 145.482C67.0733 144.944 67.6071 144.57 68.185 144.645C68.7628 144.72 69.1659 145.216 69.0853 145.753Z" fill="#C53622"/>
<path d="M69.0244 142.033C68.964 142.435 68.5636 142.717 68.1302 142.66C67.6968 142.604 67.3945 142.232 67.455 141.829C67.5154 141.426 67.9158 141.145 68.3492 141.201C68.7826 141.257 69.0849 141.63 69.0244 142.033Z" fill="#C53622"/>
<path d="M68.0462 149.17C67.9656 149.707 67.4318 150.082 66.854 150.007C66.2761 149.932 65.873 149.436 65.9537 148.898C66.0343 148.361 66.568 147.986 67.1459 148.061C67.7237 148.136 68.1268 148.632 68.0462 149.17Z" fill="#C53622"/>
<path d="M65.1868 146.326C65.1062 146.863 64.5725 147.238 63.9946 147.163C63.4168 147.088 63.0137 146.592 63.0943 146.054C63.1749 145.517 63.7087 145.142 64.2865 145.217C64.8644 145.292 65.2675 145.788 65.1868 146.326Z" fill="#C53622"/>
<path d="M66.3021 152.894C66.2215 153.431 65.6877 153.806 65.1098 153.731C64.532 153.656 64.1289 153.16 64.2095 152.622C64.2901 152.085 64.8239 151.71 65.4018 151.785C65.9796 151.86 66.3827 152.356 66.3021 152.894Z" fill="#C53622"/>
<path d="M64.181 149.916C64.1004 150.453 63.5666 150.828 62.9887 150.753C62.4109 150.678 62.0078 150.182 62.0884 149.644C62.169 149.107 62.7028 148.732 63.2807 148.807C63.8585 148.882 64.2616 149.379 64.181 149.916Z" fill="#C53622"/>
<path d="M64.208 155.074C64.1475 155.477 63.7472 155.758 63.3138 155.702C62.8804 155.645 62.5781 155.273 62.6386 154.87C62.699 154.467 63.0994 154.186 63.5328 154.242C63.9661 154.299 64.2685 154.671 64.208 155.074Z" fill="#C53622"/>
<path d="M62.228 128.973C62.228 128.973 63.4016 133.473 62.1658 135.923C60.6764 138.875 56.1784 139.062 56.1784 139.062C56.1784 139.062 54.8165 135.61 56.6162 132.609C58.0006 130.3 62.228 128.973 62.228 128.973Z" fill="#7CD623"/>
<path fill-rule="evenodd" clip-rule="evenodd" d="M63.3823 128.713L62.2283 128.973L61.8484 127.927C62.164 127.828 62.5097 127.857 62.8014 128.006C63.093 128.156 63.3038 128.412 63.3823 128.713ZM61.1121 129.39C61.7729 129.116 62.2283 128.973 62.2283 128.973C62.2283 128.973 62.3404 129.403 62.4588 130.07C62.7236 131.559 63.0199 134.23 62.1661 135.923C60.6766 138.875 56.1786 139.062 56.1786 139.062C56.1786 139.062 54.8167 135.61 56.6164 132.609C57.5465 131.058 59.7596 129.95 61.1121 129.39ZM56.1786 139.062C55.0638 139.442 55.0636 139.442 55.0635 139.441L55.0624 139.439L55.0605 139.434L55.0554 139.42C55.0513 139.41 55.0461 139.396 55.0397 139.379C55.0271 139.344 55.0102 139.297 54.9903 139.237C54.9503 139.119 54.8977 138.951 54.8418 138.743C54.7304 138.328 54.6038 137.745 54.5396 137.056C54.4123 135.692 54.5228 133.833 55.5793 132.071C56.4446 130.628 58.1064 129.595 59.3753 128.955C60.0357 128.622 60.6468 128.367 61.0929 128.196C61.3166 128.11 61.5007 128.045 61.631 128C61.6962 127.977 61.7481 127.96 61.7849 127.948C61.8033 127.942 61.8179 127.937 61.8286 127.934L61.8416 127.929L61.8473 127.928L61.8484 127.927C61.8487 127.927 61.8484 127.927 62.2283 128.973C63.3823 128.713 63.3822 128.713 63.3823 128.713L63.3829 128.716L63.384 128.72L63.3873 128.732L63.3985 128.777C63.4079 128.815 63.421 128.87 63.437 128.939C63.469 129.076 63.5125 129.273 63.5604 129.516C63.6558 130 63.7698 130.673 63.8433 131.43C63.9843 132.883 64.0039 134.88 63.2412 136.392C62.2979 138.262 60.441 139.187 58.9971 139.645C58.2596 139.878 57.5798 140.007 57.0851 140.078C56.8365 140.113 56.6312 140.135 56.4845 140.147C56.4111 140.154 56.352 140.158 56.3093 140.161C56.2879 140.162 56.2706 140.163 56.2575 140.164L56.2412 140.164L56.2355 140.165L56.2333 140.165L56.2323 140.165C56.2319 140.165 56.2315 140.165 56.1786 139.062ZM55.0638 139.442L56.1786 139.062L56.2315 140.165C55.7144 140.186 55.242 139.894 55.0638 139.442Z" fill="#156319"/>
<path d="M61.3716 135.939C62.4807 134.09 61.828 130.328 61.828 130.328C58.5313 133.513 57.7014 137.051 57.5131 138.329C57.5131 138.329 60.2625 137.789 61.3716 135.939Z" fill="#6FC21C"/>
<path d="M49.9835 134.172C51.1251 134.426 54.9099 137.42 55.971 139.285C56.0596 139.44 56.5162 139.197 56.441 139.061C55.836 137.285 53.906 133.093 52.354 131.829C50.3096 131.789 49.9192 133.773 49.9835 134.172Z" fill="#943D31"/>
<path fill-rule="evenodd" clip-rule="evenodd" d="M49.7067 135.246C49.2355 135.141 48.88 134.781 48.8083 134.336C48.7604 134.038 48.8074 133.684 48.881 133.385C48.9626 133.054 49.1095 132.659 49.356 132.272C49.8722 131.464 50.8426 130.695 52.3782 130.725C52.6573 130.731 52.9254 130.828 53.1354 130.999C53.6514 131.419 54.1352 132.023 54.5639 132.651C55.0032 133.294 55.43 134.03 55.8183 134.767C56.5784 136.21 57.2259 137.724 57.5548 138.676C57.7987 139.258 57.4497 139.734 57.3425 139.86C57.1824 140.048 56.9885 140.174 56.8331 140.253C56.6807 140.33 56.4467 140.421 56.1642 140.437C55.8933 140.452 55.2572 140.393 54.9206 139.801C54.4943 139.052 53.4183 137.946 52.2161 136.948C51.6325 136.464 51.0562 136.036 50.5706 135.721C50.3274 135.563 50.1189 135.441 49.9522 135.356C49.8015 135.279 49.7246 135.252 49.7087 135.247C49.7053 135.246 49.7047 135.246 49.7067 135.246ZM56.4402 139.061C56.4396 139.059 56.4389 139.057 56.4382 139.055C56.3577 138.819 56.2541 138.541 56.1313 138.233C55.9753 137.843 55.7884 137.404 55.5785 136.942C54.706 135.024 53.4373 132.712 52.3532 131.829C50.3088 131.789 49.9184 133.773 49.9827 134.172C50.8057 134.355 53.0026 135.962 54.5622 137.544C54.8922 137.879 55.1938 138.212 55.4477 138.531C55.6366 138.768 55.7992 138.997 55.9276 139.212C55.9423 139.236 55.9565 139.261 55.9702 139.285C56.0588 139.44 56.5154 139.197 56.4402 139.061ZM55.2978 139.364C55.3177 139.429 55.3457 139.496 55.3836 139.565C55.3534 139.51 55.3282 139.453 55.3082 139.394C55.3048 139.384 55.3013 139.374 55.2978 139.364Z" fill="#633526"/>
<path d="M52.7494 131.866C53.1224 132.236 52.8625 133.026 52.169 133.631C51.4755 134.235 50.6109 134.425 50.2379 134.055C49.8649 133.685 50.1247 132.895 50.8183 132.291C51.5118 131.686 52.3764 131.496 52.7494 131.866Z" fill="#C26649"/>
<path d="M50.6689 139.064C52.2393 139.783 52.5726 142.141 51.4132 144.331C50.2539 146.522 48.0409 147.715 46.4705 146.996C44.9 146.277 44.5668 143.919 45.7262 141.729C46.8855 139.538 49.0985 138.345 50.6689 139.064Z" fill="#FF896F"/>
<path fill-rule="evenodd" clip-rule="evenodd" d="M48.8509 140.822C49.3545 141.213 49.4222 141.909 49.0021 142.377C48.7286 142.682 48.5496 143.004 48.4499 143.349C48.2795 143.938 47.628 144.286 46.9947 144.128C46.3613 143.97 45.986 143.364 46.1564 142.775C46.3496 142.107 46.6953 141.501 47.1783 140.963C47.5984 140.495 48.3472 140.432 48.8509 140.822Z" fill="white"/>
<path d="M225.167 127.131C225.284 131.778 222.75 138.726 216.284 141.56C214.659 142.272 213.755 141.581 211.795 141.669C210.044 141.747 209.503 142.321 207.835 141.766C200.908 139.46 197.833 132.706 197.708 127.728C197.544 121.219 203.27 117.781 211.302 122.028C218.59 117.694 225.004 120.623 225.167 127.131Z" fill="#FF542F"/>
<path fill-rule="evenodd" clip-rule="evenodd" d="M211.268 120.752C207.295 118.81 203.65 118.556 200.893 119.861C197.963 121.247 196.432 124.201 196.521 127.753C196.653 133.014 199.891 140.294 207.435 142.806C208.477 143.153 209.234 143.155 209.972 143.045C210.226 143.007 210.433 142.967 210.627 142.93C211.001 142.858 211.329 142.795 211.853 142.771C212.475 142.744 212.924 142.803 213.434 142.871C213.62 142.896 213.814 142.922 214.028 142.945C214.837 143.032 215.712 143.031 216.79 142.558C223.828 139.474 226.478 132.015 226.355 127.105C226.264 123.503 224.413 120.703 221.372 119.498C218.526 118.371 214.925 118.754 211.268 120.752ZM216.284 141.56C222.75 138.726 225.284 131.778 225.167 127.131C225.004 120.623 218.59 117.694 211.302 122.028C203.27 117.781 197.544 121.219 197.708 127.728C197.833 132.706 200.909 139.46 207.835 141.766C208.918 142.127 209.526 142.011 210.298 141.864C210.716 141.785 211.181 141.696 211.795 141.669C212.541 141.635 213.133 141.714 213.671 141.786C214.547 141.903 215.277 142.001 216.284 141.56Z" fill="#734125"/>
<path fill-rule="evenodd" clip-rule="evenodd" d="M213.643 138.613C220.109 135.779 222.115 128.832 221.998 124.184C221.964 122.823 221.657 121.619 221.125 120.604C223.536 121.655 225.088 123.971 225.168 127.131C225.284 131.778 222.75 138.726 216.284 141.559C215.277 142.001 214.547 141.903 213.671 141.786C213.134 141.714 212.541 141.635 211.796 141.668C211.181 141.696 210.716 141.785 210.299 141.864C209.526 142.011 208.918 142.127 207.835 141.766C205.302 140.923 203.284 139.484 201.737 137.755C202.471 138.171 203.27 138.53 204.138 138.819C205.255 139.191 206.103 139.056 207.068 138.903C207.544 138.828 208.048 138.748 208.626 138.722C209.353 138.689 210.006 138.763 210.624 138.834C211.674 138.953 212.62 139.061 213.643 138.613Z" fill="#ED4A27"/>
<path d="M221.226 125.909C221.145 126.447 220.612 126.821 220.034 126.746C219.456 126.671 219.053 126.175 219.133 125.638C219.214 125.101 219.748 124.726 220.326 124.801C220.903 124.876 221.307 125.372 221.226 125.909Z" fill="#C53622"/>
<path d="M224.085 128.753C224.005 129.29 223.471 129.665 222.893 129.59C222.315 129.515 221.912 129.019 221.993 128.482C222.073 127.944 222.607 127.57 223.185 127.645C223.763 127.72 224.166 128.216 224.085 128.753Z" fill="#C53622"/>
<path d="M224.024 125.033C223.964 125.435 223.564 125.717 223.13 125.66C222.697 125.604 222.395 125.232 222.455 124.829C222.515 124.426 222.916 124.145 223.349 124.201C223.783 124.257 224.085 124.63 224.024 125.033Z" fill="#C53622"/>
<path d="M223.046 132.17C222.966 132.707 222.432 133.082 221.854 133.007C221.276 132.932 220.873 132.436 220.954 131.898C221.034 131.361 221.568 130.986 222.146 131.061C222.724 131.136 223.127 131.632 223.046 132.17Z" fill="#C53622"/>
<path d="M220.187 129.326C220.106 129.863 219.572 130.238 218.995 130.163C218.417 130.088 218.014 129.592 218.094 129.054C218.175 128.517 218.709 128.142 219.287 128.217C219.864 128.292 220.267 128.788 220.187 129.326Z" fill="#C53622"/>
<path d="M221.302 135.894C221.221 136.431 220.688 136.806 220.11 136.731C219.532 136.656 219.129 136.16 219.21 135.622C219.29 135.085 219.824 134.71 220.402 134.785C220.98 134.86 221.383 135.356 221.302 135.894Z" fill="#C53622"/>
<path d="M219.181 132.916C219.1 133.453 218.567 133.828 217.989 133.753C217.411 133.678 217.008 133.182 217.088 132.644C217.169 132.107 217.703 131.732 218.281 131.807C218.859 131.882 219.262 132.379 219.181 132.916Z" fill="#C53622"/>
<path d="M219.208 138.074C219.148 138.477 218.747 138.758 218.314 138.702C217.88 138.645 217.578 138.273 217.639 137.87C217.699 137.467 218.099 137.186 218.533 137.242C218.966 137.299 219.268 137.671 219.208 138.074Z" fill="#C53622"/>
<path d="M217.228 111.973C217.228 111.973 218.402 116.473 217.166 118.923C215.676 121.875 211.178 122.062 211.178 122.062C211.178 122.062 209.816 118.61 211.616 115.609C213.001 113.3 217.228 111.973 217.228 111.973Z" fill="#7CD623"/>
<path fill-rule="evenodd" clip-rule="evenodd" d="M218.382 111.713L217.228 111.973L216.848 110.927C217.164 110.828 217.51 110.857 217.801 111.006C218.093 111.156 218.304 111.412 218.382 111.713ZM216.112 112.39C216.773 112.116 217.228 111.973 217.228 111.973C217.228 111.973 217.34 112.403 217.459 113.07C217.724 114.559 218.02 117.23 217.166 118.923C215.677 121.875 211.179 122.062 211.179 122.062C211.179 122.062 209.817 118.61 211.616 115.609C212.546 114.058 214.76 112.95 216.112 112.39ZM211.179 122.062C210.064 122.442 210.064 122.442 210.063 122.441L210.062 122.439L210.061 122.434L210.055 122.42C210.051 122.41 210.046 122.396 210.04 122.379C210.027 122.344 210.01 122.297 209.99 122.237C209.95 122.119 209.898 121.951 209.842 121.743C209.73 121.328 209.604 120.745 209.54 120.056C209.412 118.692 209.523 116.833 210.579 115.071C211.445 113.628 213.106 112.595 214.375 111.955C215.036 111.622 215.647 111.367 216.093 111.196C216.317 111.11 216.501 111.045 216.631 111C216.696 110.977 216.748 110.96 216.785 110.948C216.803 110.942 216.818 110.937 216.829 110.934L216.842 110.929L216.847 110.928L216.848 110.927C216.849 110.927 216.848 110.927 217.228 111.973C218.382 111.713 218.382 111.713 218.382 111.713L218.383 111.716L218.384 111.72L218.387 111.732L218.398 111.777C218.408 111.815 218.421 111.87 218.437 111.939C218.469 112.076 218.513 112.273 218.56 112.516C218.656 113 218.77 113.673 218.843 114.43C218.984 115.883 219.004 117.88 218.241 119.392C217.298 121.262 215.441 122.187 213.997 122.645C213.26 122.878 212.58 123.007 212.085 123.078C211.837 123.113 211.631 123.135 211.485 123.147C211.411 123.154 211.352 123.158 211.309 123.161C211.288 123.162 211.271 123.163 211.258 123.164L211.241 123.164L211.236 123.165L211.233 123.165L211.232 123.165C211.232 123.165 211.231 123.165 211.179 122.062ZM210.064 122.442L211.179 122.062L211.231 123.165C210.714 123.186 210.242 122.894 210.064 122.442Z" fill="#156319"/>
<path d="M216.372 118.939C217.481 117.09 216.828 113.328 216.828 113.328C213.531 116.513 212.701 120.051 212.513 121.329C212.513 121.329 215.262 120.789 216.372 118.939Z" fill="#6FC21C"/>
<path d="M204.983 117.172C206.125 117.426 209.91 120.42 210.971 122.285C211.06 122.44 211.516 122.197 211.441 122.061C210.836 120.285 208.906 116.093 207.354 114.829C205.31 114.789 204.919 116.773 204.983 117.172Z" fill="#943D31"/>
<path fill-rule="evenodd" clip-rule="evenodd" d="M204.707 118.246C204.236 118.141 203.88 117.781 203.808 117.336C203.76 117.038 203.807 116.684 203.881 116.385C203.963 116.054 204.109 115.659 204.356 115.272C204.872 114.464 205.843 113.695 207.378 113.725C207.657 113.731 207.925 113.828 208.135 113.999C208.651 114.419 209.135 115.023 209.564 115.651C210.003 116.294 210.43 117.03 210.818 117.767C211.578 119.21 212.226 120.724 212.555 121.676C212.799 122.258 212.45 122.734 212.343 122.86C212.182 123.048 211.989 123.174 211.833 123.253C211.681 123.33 211.447 123.421 211.164 123.437C210.893 123.452 210.257 123.393 209.921 122.801C209.494 122.052 208.418 120.946 207.216 119.948C206.633 119.464 206.056 119.036 205.571 118.721C205.327 118.563 205.119 118.441 204.952 118.356C204.802 118.279 204.725 118.252 204.709 118.247C204.705 118.246 204.705 118.246 204.707 118.246ZM211.44 122.061C211.44 122.059 211.439 122.057 211.438 122.055C211.358 121.819 211.254 121.541 211.131 121.233C210.975 120.843 210.788 120.404 210.579 119.942C209.706 118.024 208.437 115.712 207.353 114.829C205.309 114.789 204.918 116.773 204.983 117.172C205.806 117.355 208.003 118.962 209.562 120.544C209.892 120.879 210.194 121.212 210.448 121.531C210.637 121.768 210.799 121.997 210.928 122.212C210.942 122.236 210.956 122.261 210.97 122.285C211.059 122.44 211.515 122.197 211.44 122.061ZM210.298 122.364C210.318 122.429 210.346 122.496 210.384 122.565C210.353 122.51 210.328 122.453 210.308 122.394C210.305 122.384 210.301 122.374 210.298 122.364Z" fill="#633526"/>
<path d="M207.749 114.866C208.122 115.236 207.863 116.026 207.169 116.631C206.475 117.235 205.611 117.425 205.238 117.055C204.865 116.685 205.125 115.895 205.818 115.291C206.512 114.686 207.376 114.496 207.749 114.866Z" fill="#C26649"/>
<path d="M205.669 122.064C207.239 122.783 207.573 125.141 206.413 127.331C205.254 129.522 203.041 130.715 201.47 129.996C199.9 129.277 199.567 126.919 200.726 124.729C201.886 122.538 204.098 121.345 205.669 122.064Z" fill="#FF896F"/>
<path fill-rule="evenodd" clip-rule="evenodd" d="M203.851 123.822C204.355 124.213 204.422 124.909 204.002 125.377C203.729 125.682 203.55 126.004 203.45 126.349C203.28 126.938 202.628 127.286 201.995 127.128C201.361 126.97 200.986 126.364 201.156 125.775C201.35 125.107 201.695 124.501 202.178 123.963C202.598 123.495 203.347 123.432 203.851 123.822Z" fill="white"/>
<path d="M148.167 137.131C148.284 141.778 145.75 148.726 139.284 151.56C137.659 152.272 136.755 151.581 134.795 151.669C133.044 151.747 132.503 152.321 130.835 151.766C123.908 149.46 120.833 142.706 120.708 137.728C120.544 131.219 126.27 127.781 134.302 132.028C141.59 127.694 148.004 130.623 148.167 137.131Z" fill="#FF542F"/>
<path fill-rule="evenodd" clip-rule="evenodd" d="M134.268 130.752C130.295 128.81 126.65 128.556 123.893 129.861C120.963 131.247 119.432 134.201 119.521 137.753C119.653 143.014 122.891 150.294 130.435 152.806C131.477 153.153 132.234 153.155 132.972 153.045C133.226 153.007 133.433 152.967 133.627 152.93C134.001 152.858 134.329 152.795 134.853 152.771C135.475 152.744 135.924 152.803 136.434 152.871C136.62 152.896 136.814 152.922 137.028 152.945C137.837 153.032 138.712 153.031 139.79 152.558C146.828 149.474 149.478 142.015 149.355 137.105C149.264 133.503 147.413 130.703 144.372 129.498C141.526 128.371 137.925 128.754 134.268 130.752ZM139.284 151.56C145.75 148.726 148.284 141.778 148.167 137.131C148.004 130.623 141.59 127.694 134.302 132.028C126.27 127.781 120.544 131.219 120.708 137.728C120.833 142.706 123.909 149.46 130.835 151.766C131.918 152.127 132.526 152.011 133.298 151.864C133.716 151.785 134.181 151.696 134.795 151.669C135.541 151.635 136.133 151.714 136.671 151.786C137.547 151.903 138.277 152.001 139.284 151.56Z" fill="#734125"/>
<path fill-rule="evenodd" clip-rule="evenodd" d="M136.643 148.613C143.109 145.779 145.115 138.832 144.998 134.184C144.964 132.823 144.657 131.619 144.125 130.604C146.536 131.655 148.088 133.971 148.168 137.131C148.284 141.778 145.75 148.726 139.284 151.559C138.277 152.001 137.547 151.903 136.671 151.786C136.134 151.714 135.541 151.635 134.796 151.668C134.181 151.696 133.716 151.785 133.299 151.864C132.526 152.011 131.918 152.127 130.835 151.766C128.302 150.923 126.284 149.484 124.737 147.755C125.471 148.171 126.27 148.53 127.138 148.819C128.255 149.191 129.103 149.056 130.068 148.903C130.544 148.828 131.048 148.748 131.626 148.722C132.353 148.689 133.006 148.763 133.624 148.834C134.674 148.953 135.62 149.061 136.643 148.613Z" fill="#ED4A27"/>
<path d="M144.226 135.909C144.145 136.447 143.612 136.821 143.034 136.746C142.456 136.671 142.053 136.175 142.133 135.638C142.214 135.101 142.748 134.726 143.326 134.801C143.903 134.876 144.307 135.372 144.226 135.909Z" fill="#C53622"/>
<path d="M147.085 138.753C147.005 139.29 146.471 139.665 145.893 139.59C145.315 139.515 144.912 139.019 144.993 138.482C145.073 137.944 145.607 137.57 146.185 137.645C146.763 137.72 147.166 138.216 147.085 138.753Z" fill="#C53622"/>
<path d="M147.024 135.033C146.964 135.435 146.564 135.717 146.13 135.66C145.697 135.604 145.395 135.232 145.455 134.829C145.515 134.426 145.916 134.145 146.349 134.201C146.783 134.257 147.085 134.63 147.024 135.033Z" fill="#C53622"/>
<path d="M146.046 142.17C145.966 142.707 145.432 143.082 144.854 143.007C144.276 142.932 143.873 142.436 143.954 141.898C144.034 141.361 144.568 140.986 145.146 141.061C145.724 141.136 146.127 141.632 146.046 142.17Z" fill="#C53622"/>
<path d="M143.187 139.326C143.106 139.863 142.572 140.238 141.995 140.163C141.417 140.088 141.014 139.592 141.094 139.054C141.175 138.517 141.709 138.142 142.287 138.217C142.864 138.292 143.267 138.788 143.187 139.326Z" fill="#C53622"/>
<path d="M144.302 145.894C144.221 146.431 143.688 146.806 143.11 146.731C142.532 146.656 142.129 146.16 142.21 145.622C142.29 145.085 142.824 144.71 143.402 144.785C143.98 144.86 144.383 145.356 144.302 145.894Z" fill="#C53622"/>
<path d="M142.181 142.916C142.1 143.453 141.567 143.828 140.989 143.753C140.411 143.678 140.008 143.182 140.088 142.644C140.169 142.107 140.703 141.732 141.281 141.807C141.859 141.882 142.262 142.379 142.181 142.916Z" fill="#C53622"/>
<path d="M142.208 148.074C142.148 148.477 141.747 148.758 141.314 148.702C140.88 148.645 140.578 148.273 140.639 147.87C140.699 147.467 141.099 147.186 141.533 147.242C141.966 147.299 142.268 147.671 142.208 148.074Z" fill="#C53622"/>
<path d="M140.228 121.973C140.228 121.973 141.402 126.473 140.166 128.923C138.676 131.875 134.178 132.062 134.178 132.062C134.178 132.062 132.816 128.61 134.616 125.609C136.001 123.3 140.228 121.973 140.228 121.973Z" fill="#7CD623"/>
<path fill-rule="evenodd" clip-rule="evenodd" d="M141.382 121.713L140.228 121.973L139.848 120.927C140.164 120.828 140.51 120.857 140.801 121.006C141.093 121.156 141.304 121.412 141.382 121.713ZM139.112 122.39C139.773 122.116 140.228 121.973 140.228 121.973C140.228 121.973 140.34 122.403 140.459 123.07C140.724 124.559 141.02 127.23 140.166 128.923C138.677 131.875 134.179 132.062 134.179 132.062C134.179 132.062 132.817 128.61 134.616 125.609C135.546 124.058 137.76 122.95 139.112 122.39ZM134.179 132.062C133.064 132.442 133.064 132.442 133.063 132.441L133.062 132.439L133.061 132.434L133.055 132.42C133.051 132.41 133.046 132.396 133.04 132.379C133.027 132.344 133.01 132.297 132.99 132.237C132.95 132.119 132.898 131.951 132.842 131.743C132.73 131.328 132.604 130.745 132.54 130.056C132.412 128.692 132.523 126.833 133.579 125.071C134.445 123.628 136.106 122.595 137.375 121.955C138.036 121.622 138.647 121.367 139.093 121.196C139.317 121.11 139.501 121.045 139.631 121C139.696 120.977 139.748 120.96 139.785 120.948C139.803 120.942 139.818 120.937 139.829 120.934L139.842 120.929L139.847 120.928L139.848 120.927C139.849 120.927 139.848 120.927 140.228 121.973C141.382 121.713 141.382 121.713 141.382 121.713L141.383 121.716L141.384 121.72L141.387 121.732L141.398 121.777C141.408 121.815 141.421 121.87 141.437 121.939C141.469 122.076 141.513 122.273 141.56 122.516C141.656 123 141.77 123.673 141.843 124.43C141.984 125.883 142.004 127.88 141.241 129.392C140.298 131.262 138.441 132.187 136.997 132.645C136.26 132.878 135.58 133.007 135.085 133.078C134.837 133.113 134.631 133.135 134.485 133.147C134.411 133.154 134.352 133.158 134.309 133.161C134.288 133.162 134.271 133.163 134.258 133.164L134.241 133.164L134.236 133.165L134.233 133.165L134.232 133.165C134.232 133.165 134.231 133.165 134.179 132.062ZM133.064 132.442L134.179 132.062L134.231 133.165C133.714 133.186 133.242 132.894 133.064 132.442Z" fill="#156319"/>
<path d="M139.372 128.939C140.481 127.09 139.828 123.328 139.828 123.328C136.531 126.513 135.701 130.051 135.513 131.329C135.513 131.329 138.262 130.789 139.372 128.939Z" fill="#6FC21C"/>
<path d="M127.983 127.172C129.125 127.426 132.91 130.42 133.971 132.285C134.06 132.44 134.516 132.197 134.441 132.061C133.836 130.285 131.906 126.093 130.354 124.829C128.31 124.789 127.919 126.773 127.983 127.172Z" fill="#943D31"/>
<path fill-rule="evenodd" clip-rule="evenodd" d="M127.707 128.246C127.236 128.141 126.88 127.781 126.808 127.336C126.76 127.038 126.807 126.684 126.881 126.385C126.963 126.054 127.109 125.659 127.356 125.272C127.872 124.464 128.843 123.695 130.378 123.725C130.657 123.731 130.925 123.828 131.135 123.999C131.651 124.419 132.135 125.023 132.564 125.651C133.003 126.294 133.43 127.03 133.818 127.767C134.578 129.21 135.226 130.724 135.555 131.676C135.799 132.258 135.45 132.734 135.343 132.86C135.182 133.048 134.989 133.174 134.833 133.253C134.681 133.33 134.447 133.421 134.164 133.437C133.893 133.452 133.257 133.393 132.921 132.801C132.494 132.052 131.418 130.946 130.216 129.948C129.633 129.464 129.056 129.036 128.571 128.721C128.327 128.563 128.119 128.441 127.952 128.356C127.802 128.279 127.725 128.252 127.709 128.247C127.705 128.246 127.705 128.246 127.707 128.246ZM134.44 132.061C134.44 132.059 134.439 132.057 134.438 132.055C134.358 131.819 134.254 131.541 134.131 131.233C133.975 130.843 133.788 130.404 133.579 129.942C132.706 128.024 131.437 125.712 130.353 124.829C128.309 124.789 127.918 126.773 127.983 127.172C128.806 127.355 131.003 128.962 132.562 130.544C132.892 130.879 133.194 131.212 133.448 131.531C133.637 131.768 133.799 131.997 133.928 132.212C133.942 132.236 133.956 132.261 133.97 132.285C134.059 132.44 134.515 132.197 134.44 132.061ZM133.298 132.364C133.318 132.429 133.346 132.496 133.384 132.565C133.353 132.51 133.328 132.453 133.308 132.394C133.305 132.384 133.301 132.374 133.298 132.364Z" fill="#633526"/>
<path d="M130.749 124.866C131.122 125.236 130.863 126.026 130.169 126.631C129.475 127.235 128.611 127.425 128.238 127.055C127.865 126.685 128.125 125.895 128.818 125.291C129.512 124.686 130.376 124.496 130.749 124.866Z" fill="#C26649"/>
<path d="M128.669 132.064C130.239 132.783 130.573 135.141 129.413 137.331C128.254 139.522 126.041 140.715 124.47 139.996C122.9 139.277 122.567 136.919 123.726 134.729C124.886 132.538 127.098 131.345 128.669 132.064Z" fill="#FF896F"/>
<path fill-rule="evenodd" clip-rule="evenodd" d="M126.851 133.822C127.355 134.213 127.422 134.909 127.002 135.377C126.729 135.682 126.55 136.004 126.45 136.349C126.28 136.938 125.628 137.286 124.995 137.128C124.361 136.97 123.986 136.364 124.156 135.775C124.35 135.107 124.695 134.501 125.178 133.963C125.598 133.495 126.347 133.432 126.851 133.822Z" fill="white"/>
</svg>
